<svg width="62" height="20" viewBox="0 0 62 20" fill="none" xmlns="http://www.w3.org/2000/svg">
<rect width="62" height="20" fill="#3978AD"/>
<path d="M53.8223 4.08008H55.3483V15.0001H53.8223V4.08008ZM48.4883 11.7801C48.4883 11.0707 48.6329 10.4687 48.9223 9.97408C49.2116 9.47008 49.5943 9.08741 50.0703 8.82608C50.5556 8.55541 51.0736 8.42008 51.6243 8.42008C52.1656 8.42008 52.6369 8.55541 53.0383 8.82608C53.4489 9.09675 53.7709 9.48408 54.0043 9.98808C54.2469 10.4827 54.3683 11.0801 54.3683 11.7801C54.3683 12.4707 54.2469 13.0681 54.0043 13.5721C53.7709 14.0761 53.4489 14.4634 53.0383 14.7341C52.6369 15.0047 52.1656 15.1401 51.6243 15.1401C51.0736 15.1401 50.5556 15.0094 50.0703 14.7481C49.5943 14.4774 49.2116 14.0901 48.9223 13.5861C48.6329 13.0821 48.4883 12.4801 48.4883 11.7801ZM50.0563 11.7801C50.0563 12.2094 50.1449 12.5781 50.3223 12.8861C50.4996 13.1941 50.7329 13.4274 51.0223 13.5861C51.3209 13.7447 51.6429 13.8241 51.9883 13.8241C52.2776 13.8241 52.5623 13.7447 52.8423 13.5861C53.1316 13.4274 53.3649 13.1987 53.5423 12.9001C53.7289 12.5921 53.8223 12.2187 53.8223 11.7801C53.8223 11.3414 53.7289 10.9727 53.5423 10.6741C53.3649 10.3661 53.1316 10.1327 52.8423 9.97408C52.5623 9.81541 52.2776 9.73608 51.9883 9.73608C51.6429 9.73608 51.3209 9.81541 51.0223 9.97408C50.7329 10.1327 50.4996 10.3661 50.3223 10.6741C50.1449 10.9821 50.0563 11.3507 50.0563 11.7801Z" fill="white"/>
<path d="M44.2451 15.1399C43.5917 15.1399 43.0131 14.9999 42.5091 14.7199C42.0144 14.4399 41.6317 14.0479 41.3611 13.5439C41.0904 13.0399 40.9551 12.4519 40.9551 11.7799C40.9551 11.0986 41.0904 10.5059 41.3611 10.0019C41.6411 9.49792 42.0331 9.11059 42.5371 8.83992C43.0411 8.55992 43.6337 8.41992 44.3151 8.41992C44.9964 8.41992 45.5751 8.55059 46.0511 8.81192C46.5271 9.07325 46.8911 9.45125 47.1431 9.94592C47.4044 10.4313 47.5351 11.0193 47.5351 11.7099C47.5351 11.7846 47.5304 11.8639 47.5211 11.9479C47.5211 12.0319 47.5164 12.0926 47.5071 12.1299H41.8511V11.0939H46.2191L45.7571 11.7379C45.7851 11.6819 45.8131 11.6073 45.8411 11.5139C45.8784 11.4113 45.8971 11.3273 45.8971 11.2619C45.8971 10.9166 45.8271 10.6179 45.6871 10.3659C45.5564 10.1139 45.3697 9.91792 45.1271 9.77792C44.8937 9.63792 44.6184 9.56792 44.3011 9.56792C43.9184 9.56792 43.5917 9.65192 43.3211 9.81992C43.0504 9.98792 42.8451 10.2306 42.7051 10.5479C42.5651 10.8653 42.4904 11.2573 42.4811 11.7239C42.4811 12.1906 42.5511 12.5873 42.6911 12.9139C42.8311 13.2313 43.0364 13.4739 43.3071 13.6419C43.5871 13.8099 43.9231 13.8939 44.3151 13.8939C44.7257 13.8939 45.0851 13.8099 45.3931 13.6419C45.7011 13.4739 45.9577 13.2173 46.1631 12.8719L47.4651 13.4039C47.1291 13.9826 46.6951 14.4166 46.1631 14.7059C45.6311 14.9953 44.9917 15.1399 44.2451 15.1399Z" fill="white"/>
<path d="M31.6046 9.03694L30.9326 15.0009H29.2246L30.5686 4.71094L34.5866 11.3609L38.6186 4.71094L39.9626 15.0009H38.2546L37.5686 9.03694L34.5866 14.0909L31.6046 9.03694Z" fill="white"/>
<path d="M22.8854 4.08008V15.0001H21.3594V4.08008H22.8854ZM28.2194 11.7801C28.2194 12.4801 28.0747 13.0821 27.7854 13.5861C27.496 14.0901 27.1134 14.4774 26.6374 14.7481C26.1614 15.0094 25.6434 15.1401 25.0834 15.1401C24.5514 15.1401 24.0754 15.0047 23.6554 14.7341C23.2447 14.4634 22.9227 14.0761 22.6894 13.5721C22.456 13.0681 22.3394 12.4707 22.3394 11.7801C22.3394 11.0801 22.456 10.4827 22.6894 9.98808C22.9227 9.48408 23.2447 9.09675 23.6554 8.82608C24.0754 8.55541 24.5514 8.42008 25.0834 8.42008C25.6434 8.42008 26.1614 8.55541 26.6374 8.82608C27.1134 9.08741 27.496 9.47008 27.7854 9.97408C28.0747 10.4687 28.2194 11.0707 28.2194 11.7801ZM26.6514 11.7801C26.6514 11.3507 26.5627 10.9821 26.3854 10.6741C26.208 10.3661 25.97 10.1327 25.6714 9.97408C25.382 9.81541 25.06 9.73608 24.7054 9.73608C24.416 9.73608 24.1314 9.81541 23.8514 9.97408C23.5714 10.1327 23.338 10.3661 23.1514 10.6741C22.974 10.9727 22.8854 11.3414 22.8854 11.7801C22.8854 12.2187 22.974 12.5921 23.1514 12.9001C23.338 13.1987 23.5714 13.4274 23.8514 13.5861C24.1314 13.7447 24.416 13.8241 24.7054 13.8241C25.06 13.8241 25.382 13.7447 25.6714 13.5861C25.97 13.4274 26.208 13.1941 26.3854 12.8861C26.5627 12.5781 26.6514 12.2094 26.6514 11.7801Z" fill="white"/>
<path d="M15.3411 12.4805C15.3411 12.9379 15.4391 13.2925 15.6351 13.5445C15.8311 13.7965 16.1298 13.9225 16.5311 13.9225C16.8204 13.9225 17.0724 13.8665 17.2871 13.7545C17.5018 13.6332 17.6698 13.4652 17.7911 13.2505C17.9124 13.0265 17.9731 12.7699 17.9731 12.4805V8.56055H19.4851V15.0005H17.9731V14.0065C17.7678 14.3799 17.5018 14.6645 17.1751 14.8605C16.8578 15.0472 16.4751 15.1405 16.0271 15.1405C15.3084 15.1405 14.7531 14.9165 14.3611 14.4685C13.9784 14.0205 13.7871 13.4139 13.7871 12.6485V8.56055H15.3411V12.4805Z" fill="white"/>
<path d="M6.0918 5.19922H7.7438V14.9992H6.0918V5.19922ZM7.0718 6.65522V5.19922H9.0458C9.75513 5.19922 10.3711 5.32522 10.8938 5.57722C11.4258 5.81989 11.8365 6.16989 12.1258 6.62722C12.4151 7.07522 12.5598 7.61189 12.5598 8.23722C12.5598 8.86255 12.4151 9.40389 12.1258 9.86122C11.8365 10.3186 11.4258 10.6732 10.8938 10.9252C10.3711 11.1679 9.75513 11.2892 9.0458 11.2892H7.0718V9.83322H9.0458C9.61513 9.83322 10.0725 9.69789 10.4178 9.42722C10.7631 9.15655 10.9358 8.75989 10.9358 8.23722C10.9358 7.71455 10.7631 7.32255 10.4178 7.06122C10.0725 6.79055 9.61513 6.65522 9.0458 6.65522H7.0718Z" fill="white"/>
</svg>
