<?xml version="1.0" encoding="UTF-8"?><svg id="_レイヤー_1" xmlns="http://www.w3.org/2000/svg" width="1235.2" height="140.78" viewBox="0 0 1235.2 140.78"><defs><style>.cls-1{fill:#ff4500;}.cls-2{fill:#847769;}</style></defs><path d="M30.78,10.42c.81,8.15,2.16,14.42,3.62,19.44,2.75-3.78,4.86-8.1,6.64-12.74.38-.97,1.08-1.35,1.84-1.35,1.3,0,2.75,1.24,2.75,2.7,0,.97-3.02,9.23-9.07,16.69,1.51,3.02,3.89,7.13,5.02,7.13.92,0,1.57-1.94,2.05-7.78.11-1.35.92-1.94,1.89-1.94,1.4,0,3.08,1.24,3.08,3.08,0,.16-.05.32-.05.49-1.19,8.37-3.4,12.64-6.43,12.64-2.65,0-5.89-3.4-9.34-9.72-5.45,5.56-11.18,9.34-12.37,9.34-1.4,0-2.54-1.67-2.54-3.19,0-.76.27-1.46,1.03-1.89,4.7-2.65,8.42-5.56,11.61-9.02-2.32-6.53-3.94-13.99-4.97-23.87H8.26c-.54,0-.81.27-.81.81v5.24h11.12c2.48,0,4.32,1.94,4.32,4.54,0,14.09-.86,19.6-7.78,19.6-3.78,0-5.62-.49-5.62-3.29,0-1.3.59-2.54,1.57-2.54.16,0,.27,0,.43.05,1.51.49,2.65.76,3.51.76,2.81,0,2.92-3.02,2.92-13.23,0-.81-.27-1.19-1.19-1.19H7.45v3.51c0,7.67-.27,15.28-2.32,22.25-.38,1.3-1.3,1.84-2.27,1.84-1.4,0-2.86-1.13-2.86-2.7,0-.27.05-.59.16-.86,2.05-6.43,2.21-13.93,2.21-22.3v-13.45c0-2.59,1.3-3.89,3.89-3.89h18.85c-.05-1.08-.11-2.21-.16-3.35v-.05c0-1.24,1.24-1.89,2.54-1.89s2.65.65,2.7,2.05c.05,1.13.11,2.21.16,3.24h8.8c-.32-.49-.65-.92-.97-1.35-.43-.54-.59-1.03-.59-1.51,0-1.13,1.19-2,2.43-2,.76,0,1.57.32,2.11,1.03,2.7,3.46,5.89,8.26,5.89,9.94,0,1.46-1.24,2.43-2.48,2.43-1.35,0-1.67-.54-3.24-3.67h-11.5Z"/><path d="M62.48,20.03h-3.62c-2.11,0-3.13-1.03-3.13-3.13V4.91c0-2.11,1.03-3.13,3.13-3.13h8.8c2.11,0,3.13,1.03,3.13,3.13v11.99c0,2.11-1.03,3.13-3.13,3.13h-.54v6.59h1.67c1.51,0,2.21,1.19,2.21,2.43s-.7,2.43-2.21,2.43h-1.67v8.8c3.35-.97,3.46-.97,3.62-.97,1.13,0,1.67.97,1.67,2.05,0,1.13-.59,2.43-1.67,2.75-3.67,1.13-13.18,3.73-14.42,3.73-1.57,0-2.48-1.46-2.48-2.86,0-1.13.59-2.21,1.94-2.43.11,0,.22-.05.32-.05v-17.44c0-1.24,1.03-1.89,2.05-1.89s2.05.65,2.05,1.89v16.69c.43-.11,1.78-.32,2.27-.38v-21.33ZM65.93,7.29c0-.43-.22-.65-.65-.65h-4.27c-.43,0-.65.22-.65.65v7.24c0,.43.22.65.65.65h4.27c.43,0,.65-.22.65-.65v-7.24ZM91.31,37.42c2.16,2.7,5.56,5.35,9.83,6.59,1.03.32,1.46,1.03,1.46,1.84,0,1.35-1.19,2.86-2.59,2.86-.7,0-9.45-2.7-13.01-10.58-4.05,7.45-12.15,10.64-13.72,10.64s-2.75-1.46-2.75-2.81c0-.81.43-1.51,1.57-1.84,5.13-1.57,7.99-3.56,9.94-6.7h-8.86c-1.46,0-2.21-1.24-2.21-2.43s.76-2.43,2.21-2.43h10.91c.16-.54.32-1.13.43-1.73.27-1.13,1.24-1.62,2.27-1.62,1.3,0,2.65.81,2.65,2.27,0,.22-.11.86-.16,1.08h10.96c1.51,0,2.21,1.19,2.21,2.43s-.7,2.43-2.21,2.43h-8.91ZM88.94,6.16c1.84,2.59,1.84,3.51,1.84,3.62,0,1.35-1.46,2.48-2.75,2.48-.7,0-1.4-.32-1.78-1.19-.65-1.46-1.67-3.67-2.27-4.7-1.46.05-2.7.05-3.73.05-.54,0-.92.22-1.08.59-2.54,5.67-3.83,7.13-5.18,7.13s-2.75-1.4-2.75-2.81c0-.49.16-.97.49-1.4,1.35-1.73,2.54-4,3.24-5.94.54-1.46,1.78-2.32,3.35-2.38,5.94-.11,12.69-.16,19.28-1.4.16-.05.27-.05.43-.05,1.51,0,2.86,1.73,2.86,3.19,0,.86-.54,1.67-1.84,1.84-.27.05-.54.05-.81.11,4.16,4.54,4.27,5.35,4.27,5.89,0,1.35-1.4,2.59-2.75,2.59-.59,0-1.19-.27-1.62-.92-1.46-2.27-3.83-5.4-5.08-7.02-1.4.11-2.75.22-4.1.32ZM73.49,29.59c-1.46,0-2.27-1.35-2.27-2.65,0-1.13.65-2.16,2.11-2.16s3.89,0,6.75-.05c.54-.43,1.08-.92,1.62-1.4-2.05-1.67-4.7-3.78-6.53-5.18-.59-.43-.81-1.03-.81-1.57,0-1.3,1.19-2.54,2.48-2.54.43,0,.86.16,1.3.49.43.32.86.7,1.3,1.03,1.4-1.62,2.38-2.92,3.13-4,.43-.59,1.03-.86,1.62-.86,1.24,0,2.54,1.13,2.54,2.43,0,.7-.32,1.3-3.94,5.18.86.7,1.62,1.35,2.27,1.94,3.08-2.92,5.94-5.89,7.78-7.99.43-.49.97-.7,1.51-.7,1.35,0,2.75,1.35,2.75,2.65,0,.49-.16.92-.59,1.35-2.38,2.43-6.48,6.16-10.15,8.91,3.02-.22,6.53-.38,9.07-.81-.59-1.35-.65-1.51-.65-1.89,0-1.24,1.3-2.16,2.48-2.16s2,.22,4.91,8.32c.11.27.16.54.16.81,0,1.46-1.35,2.54-2.65,2.54-.76,0-1.51-.43-1.89-1.35-.22-.59-.49-1.3-.76-1.94-7.02,1.19-19.76,1.51-23.38,1.62h-.16Z"/><path d="M135.59,18.25c1.89,8.15,8.48,18.31,19.55,25.06.97.59,1.35,1.46,1.35,2.27,0,1.57-1.35,3.19-2.81,3.19-.43,0-.81-.11-1.19-.32-10.8-6.59-16.79-16.74-19.87-23.27-6.05,15.23-19.44,23.6-21.71,23.6-1.46,0-2.86-1.57-2.86-3.08,0-.81.43-1.57,1.4-2.11,12.15-6.32,17.93-17.06,19.55-25.33h-18.79c-1.46,0-2.21-1.35-2.21-2.7s.76-2.7,2.21-2.7h19.33V2.32c0-1.51,1.35-2.21,2.7-2.21s2.7.7,2.7,2.21v10.53h19.39c1.51,0,2.21,1.35,2.21,2.7s-.7,2.7-2.21,2.7h-18.74Z"/><path d="M194.99,35.69c.92,1.57,1.3,3.24,1.3,4.81,0,6.59-6.32,8.15-14.42,8.15-2.86,0-6.86-.27-10.04-1.35-1.51-.54-2.16-1.57-2.16-2.59,0-1.3,1.13-2.59,2.75-2.59.27,0,.59,0,.92.11,3.4.97,6.16,1.46,9.23,1.46,4.21,0,7.99-.54,8.26-3.29v-.49c0-1.57-.65-2.97-1.51-4.21h-25.22c-1.46,0-2.21-1.24-2.21-2.43s.76-2.43,2.21-2.43h19.39c-.16-.16-.27-.38-.27-.65,0-.92,1.19-2.21,2.32-2.7,3.35-1.46,6.7-2.75,8.75-3.94h-21.98c-1.62,0-2.43-1.19-2.43-2.38s.81-2.32,2.43-2.32h25.54c2.54,0,3.83,1.24,3.83,2.75,0,1.13-.7,2.43-2.16,3.4-3.13,2.11-6.64,3.73-9.83,5.45-.11.05-.16.22-.16.38h18.79c1.51,0,2.21,1.19,2.21,2.43s-.7,2.43-2.21,2.43h-13.34ZM204.39,16.09c0-.54-.27-.81-.81-.81h-34.61c-.54,0-.81.27-.81.81v5.99c0,1.19-1.19,1.84-2.43,1.84s-2.43-.65-2.43-1.84v-7.78c0-2.59,1.3-3.89,3.89-3.89h4.81c-.16-.16-.32-.38-.49-.65-.7-1.24-2-3.13-3.83-5.4-.43-.49-.59-1.03-.59-1.51,0-1.4,1.51-2.54,2.97-2.54.7,0,1.35.27,1.84.81,2.11,2.59,3.4,4.59,4.16,5.83.22.38.32.76.32,1.13,0,.92-.59,1.78-1.4,2.32h10.58c-.27-.16-.54-.43-.81-.76-.81-1.19-2.11-3.19-4-5.51-.38-.49-.54-.92-.54-1.4,0-1.4,1.57-2.59,2.97-2.59.65,0,1.24.22,1.73.76,2.59,3.13,4.54,6.05,4.54,7.02,0,1.08-.81,2.05-1.78,2.48h5.67c1.62-1.73,4.16-5.24,6.05-8.86.49-.92,1.24-1.24,2.11-1.24,1.51,0,3.19,1.24,3.19,2.81,0,.38-.11.76-.32,1.13-1.19,2.16-2.92,4.48-4.48,6.16h5.51c2.59,0,3.89,1.3,3.89,3.89v7.67c0,1.19-1.19,1.84-2.43,1.84s-2.43-.65-2.43-1.84v-5.89Z"/><path d="M240.35,23.87h-3.83c-1.46,0-2.21-1.24-2.21-2.54s.76-2.48,2.21-2.48h3.83V7.78h-3.94c-1.46,0-2.21-1.24-2.21-2.54s.76-2.48,2.21-2.48h12.96c1.51,0,2.21,1.24,2.21,2.48s-.7,2.54-2.21,2.54h-4.05v11.07h3.51c1.51,0,2.21,1.24,2.21,2.48s-.7,2.54-2.21,2.54h-3.51v12.85q4.7-1.03,4.81-1.03c1.35,0,2.11,1.13,2.11,2.32,0,1.03-.54,2.16-1.78,2.59-2.32.81-6.91,2.05-13.88,3.13-.16,0-.32.05-.49.05-1.67,0-2.54-1.46-2.54-2.92,0-1.13.59-2.27,1.89-2.48,1.78-.27,3.4-.49,4.91-.76v-13.77ZM252.07,47.25c-1.46,0-2.21-1.24-2.21-2.43s.76-2.48,2.21-2.48h11.61v-5.18h-9.61c-1.46,0-2.21-1.24-2.21-2.48s.76-2.43,2.21-2.43h9.61v-4.21h-7.83c-2.59,0-3.62-1.3-3.62-3.89V5.45c0-2.59,1.08-3.89,3.67-3.89h20.63c2.59,0,3.89,1.3,3.89,3.89v18.68c0,2.59-1.3,3.89-3.89,3.89h-7.78v4.21h9.72c1.51,0,2.21,1.24,2.21,2.43s-.7,2.48-2.21,2.48h-9.72v5.18h11.18c1.51,0,2.21,1.24,2.21,2.48s-.7,2.43-2.21,2.43h-27.86ZM263.68,6.53h-5.67c-.54,0-.81.27-.81.81v4.91h6.48v-5.72ZM263.68,17.12h-6.48v5.13c0,.54.27.81.81.81h5.67v-5.94ZM275.45,7.34c0-.54-.27-.81-.81-.81h-5.89v5.72h6.7v-4.91ZM275.45,17.12h-6.7v5.94h5.89c.54,0,.81-.27.81-.81v-5.13Z"/><path d="M290.47,46.77c-1.46,0-2.21-1.24-2.21-2.54s.76-2.54,2.21-2.54h18.52V8.1h-16.47c-1.46,0-2.21-1.3-2.21-2.54s.76-2.54,2.21-2.54h38.72c1.51,0,2.21,1.24,2.21,2.54s-.7,2.54-2.21,2.54h-16.47v33.59h18.47c1.51,0,2.21,1.24,2.21,2.54s-.7,2.54-2.21,2.54h-42.77Z"/><path d="M374.54,35.69c.92,1.57,1.3,3.24,1.3,4.81,0,6.59-6.32,8.15-14.42,8.15-2.86,0-6.86-.27-10.04-1.35-1.51-.54-2.16-1.57-2.16-2.59,0-1.3,1.13-2.59,2.75-2.59.27,0,.59,0,.92.11,3.4.97,6.16,1.46,9.23,1.46,4.21,0,7.99-.54,8.26-3.29v-.49c0-1.57-.65-2.97-1.51-4.21h-25.22c-1.46,0-2.21-1.24-2.21-2.43s.76-2.43,2.21-2.43h19.39c-.16-.16-.27-.38-.27-.65,0-.92,1.19-2.21,2.32-2.7,3.35-1.46,6.7-2.75,8.75-3.94h-21.98c-1.62,0-2.43-1.19-2.43-2.38s.81-2.32,2.43-2.32h25.54c2.54,0,3.83,1.24,3.83,2.75,0,1.13-.7,2.43-2.16,3.4-3.13,2.11-6.64,3.73-9.83,5.45-.11.05-.16.22-.16.38h18.79c1.51,0,2.21,1.19,2.21,2.43s-.7,2.43-2.21,2.43h-13.34ZM383.94,16.09c0-.54-.27-.81-.81-.81h-34.61c-.54,0-.81.27-.81.81v5.99c0,1.19-1.19,1.84-2.43,1.84s-2.43-.65-2.43-1.84v-7.78c0-2.59,1.3-3.89,3.89-3.89h4.81c-.16-.16-.32-.38-.49-.65-.7-1.24-2-3.13-3.83-5.4-.43-.49-.59-1.03-.59-1.51,0-1.4,1.51-2.54,2.97-2.54.7,0,1.35.27,1.84.81,2.11,2.59,3.4,4.59,4.16,5.83.22.38.32.76.32,1.13,0,.92-.59,1.78-1.4,2.32h10.58c-.27-.16-.54-.43-.81-.76-.81-1.19-2.11-3.19-4-5.51-.38-.49-.54-.92-.54-1.4,0-1.4,1.57-2.59,2.97-2.59.65,0,1.24.22,1.73.76,2.59,3.13,4.54,6.05,4.54,7.02,0,1.08-.81,2.05-1.78,2.48h5.67c1.62-1.73,4.16-5.24,6.05-8.86.49-.92,1.24-1.24,2.11-1.24,1.51,0,3.19,1.24,3.19,2.81,0,.38-.11.76-.32,1.13-1.19,2.16-2.92,4.48-4.48,6.16h5.51c2.59,0,3.89,1.3,3.89,3.89v7.67c0,1.19-1.19,1.84-2.43,1.84s-2.43-.65-2.43-1.84v-5.89Z"/><path d="M397.76,22.9c-1.46,0-2.21-1.24-2.21-2.43s.76-2.43,2.21-2.43h4.97l-1.84-8.48h-1.84c-1.46,0-2.21-1.24-2.21-2.43s.76-2.43,2.21-2.43h9.07v-2.32c0-1.51,1.3-2.21,2.54-2.21s2.54.7,2.54,2.21v2.32h8.75c1.51,0,2.21,1.19,2.21,2.43s-.7,2.43-2.21,2.43h-1.89l-1.89,8.48h5.29c1.51,0,2.21,1.19,2.21,2.43s-.7,2.43-2.21,2.43h-25.7ZM402.41,46.71c-2.59,0-3.89-1.3-3.89-3.89v-12.74c0-2.59,1.3-3.89,3.89-3.89h16.47c2.59,0,3.94,1.3,3.94,3.89v12.74c0,2.59-1.3,3.89-3.89,3.89h-16.52ZM417.85,31.86c0-.54-.27-.81-.81-.81h-12.74c-.54,0-.81.27-.81.81v9.18c0,.54.27.81.81.81h12.74c.54,0,.81-.27.81-.81v-9.18ZM415.04,9.56h-9.18l1.84,8.48h5.51l1.84-8.48ZM426.87,4.97c0-2.16,1.08-3.24,3.24-3.24h9.02c2.38,0,3.67,1.3,3.67,3.62,0,1.08-.27,2.32-.81,3.73l-3.89,10.21c0,.05-.05.11-.05.16,0,.22.11.49.22.59,3.94,4.86,5.62,9.83,5.62,13.93,0,5.35-2.97,9.18-7.67,9.18-.54,0-1.08-.05-1.62-.16-1.24-.22-1.89-1.46-1.89-2.65s.65-2.27,2.05-2.27c.11,0,.27.05.43.05s.38.05.54.05c1.84,0,3.13-1.78,3.13-4.64,0-3.08-1.46-7.4-5.29-12.2-.32-.38-.43-1.13-.43-1.84,0-.32.05-.7.16-.97l4.1-11.39c.05-.11.05-.16.05-.27s-.05-.22-.22-.22h-4.97c-.22,0-.43.22-.43.43v39.47c0,1.51-1.24,2.21-2.48,2.21s-2.48-.7-2.48-2.21V4.97Z"/><path d="M473.9,23.87h-3.83c-1.46,0-2.21-1.24-2.21-2.54s.76-2.48,2.21-2.48h3.83V7.78h-3.94c-1.46,0-2.21-1.24-2.21-2.54s.76-2.48,2.21-2.48h12.96c1.51,0,2.21,1.24,2.21,2.48s-.7,2.54-2.21,2.54h-4.05v11.07h3.51c1.51,0,2.21,1.24,2.21,2.48s-.7,2.54-2.21,2.54h-3.51v12.85q4.7-1.03,4.81-1.03c1.35,0,2.11,1.13,2.11,2.32,0,1.03-.54,2.16-1.78,2.59-2.32.81-6.91,2.05-13.88,3.13-.16,0-.32.05-.49.05-1.67,0-2.54-1.46-2.54-2.92,0-1.13.59-2.27,1.89-2.48,1.78-.27,3.4-.49,4.91-.76v-13.77ZM485.62,47.25c-1.46,0-2.21-1.24-2.21-2.43s.76-2.48,2.21-2.48h11.61v-5.18h-9.61c-1.46,0-2.21-1.24-2.21-2.48s.76-2.43,2.21-2.43h9.61v-4.21h-7.83c-2.59,0-3.62-1.3-3.62-3.89V5.45c0-2.59,1.08-3.89,3.67-3.89h20.63c2.59,0,3.89,1.3,3.89,3.89v18.68c0,2.59-1.3,3.89-3.89,3.89h-7.78v4.21h9.72c1.51,0,2.21,1.24,2.21,2.43s-.7,2.48-2.21,2.48h-9.72v5.18h11.18c1.51,0,2.21,1.24,2.21,2.48s-.7,2.43-2.21,2.43h-27.86ZM497.23,6.53h-5.67c-.54,0-.81.27-.81.81v4.91h6.48v-5.72ZM497.23,17.12h-6.48v5.13c0,.54.27.81.81.81h5.67v-5.94ZM509,7.34c0-.54-.27-.81-.81-.81h-5.89v5.72h6.7v-4.91ZM509,17.12h-6.7v5.94h5.89c.54,0,.81-.27.81-.81v-5.13Z"/><path d="M524.02,46.77c-1.46,0-2.21-1.24-2.21-2.54s.76-2.54,2.21-2.54h18.52V8.1h-16.47c-1.46,0-2.21-1.3-2.21-2.54s.76-2.54,2.21-2.54h38.72c1.51,0,2.21,1.24,2.21,2.54s-.7,2.54-2.21,2.54h-16.47v33.59h18.47c1.51,0,2.21,1.24,2.21,2.54s-.7,2.54-2.21,2.54h-42.77Z"/><path d="M608.09,35.69c.92,1.57,1.3,3.24,1.3,4.81,0,6.59-6.32,8.15-14.42,8.15-2.86,0-6.86-.27-10.04-1.35-1.51-.54-2.16-1.57-2.16-2.59,0-1.3,1.13-2.59,2.75-2.59.27,0,.59,0,.92.11,3.4.97,6.16,1.46,9.23,1.46,4.21,0,7.99-.54,8.26-3.29v-.49c0-1.57-.65-2.97-1.51-4.21h-25.22c-1.46,0-2.21-1.24-2.21-2.43s.76-2.43,2.21-2.43h19.39c-.16-.16-.27-.38-.27-.65,0-.92,1.19-2.21,2.32-2.7,3.35-1.46,6.7-2.75,8.75-3.94h-21.98c-1.62,0-2.43-1.19-2.43-2.38s.81-2.32,2.43-2.32h25.54c2.54,0,3.83,1.24,3.83,2.75,0,1.13-.7,2.43-2.16,3.4-3.13,2.11-6.64,3.73-9.83,5.45-.11.05-.16.22-.16.38h18.79c1.51,0,2.21,1.19,2.21,2.43s-.7,2.43-2.21,2.43h-13.34ZM617.49,16.09c0-.54-.27-.81-.81-.81h-34.61c-.54,0-.81.27-.81.81v5.99c0,1.19-1.19,1.84-2.43,1.84s-2.43-.65-2.43-1.84v-7.78c0-2.59,1.3-3.89,3.89-3.89h4.81c-.16-.16-.32-.38-.49-.65-.7-1.24-2-3.13-3.83-5.4-.43-.49-.59-1.03-.59-1.51,0-1.4,1.51-2.54,2.97-2.54.7,0,1.35.27,1.84.81,2.11,2.59,3.4,4.59,4.16,5.83.22.38.32.76.32,1.13,0,.92-.59,1.78-1.4,2.32h10.58c-.27-.16-.54-.43-.81-.76-.81-1.19-2.11-3.19-4-5.51-.38-.49-.54-.92-.54-1.4,0-1.4,1.57-2.59,2.97-2.59.65,0,1.24.22,1.73.76,2.59,3.13,4.54,6.05,4.54,7.02,0,1.08-.81,2.05-1.78,2.48h5.67c1.62-1.73,4.16-5.24,6.05-8.86.49-.92,1.24-1.24,2.11-1.24,1.51,0,3.19,1.24,3.19,2.81,0,.38-.11.76-.32,1.13-1.19,2.16-2.92,4.48-4.48,6.16h5.51c2.59,0,3.89,1.3,3.89,3.89v7.67c0,1.19-1.19,1.84-2.43,1.84s-2.43-.65-2.43-1.84v-5.89Z"/><path d="M637.31,27.05c-3.89,9.77-4.37,9.88-5.51,9.88-1.35,0-2.7-1.51-2.7-2.86,0-.43.11-.81.38-1.19,2.97-4,5.83-9.18,7.83-14.26h-5.29c-1.46,0-2.21-1.24-2.21-2.43s.76-2.43,2.21-2.43h5.29v-6.53c-1.4.16-2.86.32-4.32.49h-.27c-1.4,0-2.21-1.19-2.21-2.38,0-.97.59-1.94,1.84-2.11,6.64-.86,11.45-1.67,13.39-2.38.22-.11.49-.11.7-.11,1.35,0,2.32,1.4,2.32,2.7,0,1.89-1.08,2.11-6.37,2.97v7.34h4.37c1.51,0,2.21,1.19,2.21,2.43s-.7,2.43-2.21,2.43h-4.37s4.16,4.97,6.64,8.15c.43.59.65,1.19.65,1.73,0,1.46-1.3,2.65-2.48,2.65-.65,0-1.24-.32-1.67-1.13-.76-1.46-2-3.78-3.13-5.62v22.14c0,1.51-1.24,2.21-2.54,2.21s-2.54-.7-2.54-2.21v-19.49ZM667.06,35.96l-17.88,3.51c-.16.05-.27.05-.43.05-1.4,0-2.27-1.46-2.27-2.81,0-1.08.54-2.16,1.73-2.38l18.85-3.67V2.54c0-1.73,1.35-2.54,2.75-2.54s2.7.81,2.7,2.54v27.11l2.65-.54c.16-.05.32-.05.43-.05,1.4,0,2.27,1.46,2.27,2.81,0,1.08-.54,2.11-1.73,2.32l-3.62.76v11.5c0,1.67-1.3,2.48-2.65,2.48s-2.81-.86-2.81-2.48v-10.48ZM660.31,28.57c-2.81-2.54-5.78-4.64-8.96-6.8-.92-.65-1.3-1.46-1.3-2.32,0-1.51,1.3-2.92,2.86-2.92.54,0,1.08.16,1.62.54,3.35,2.21,6.64,4.7,9.29,7.02.76.65,1.08,1.46,1.08,2.21,0,1.57-1.3,3.02-2.75,3.02-.59,0-1.24-.22-1.84-.76ZM661.34,14.58c-2.97-2.54-6.1-4.97-8.96-6.8-.97-.59-1.35-1.4-1.35-2.27,0-1.46,1.24-2.86,2.86-2.86.54,0,1.13.16,1.67.54,3.51,2.32,6.64,4.7,9.29,7.02.76.65,1.08,1.46,1.08,2.21,0,1.51-1.24,2.92-2.7,2.92-.59,0-1.24-.22-1.89-.76Z"/><path d="M706.48,25.11c-1.4,7.02-2.59,8.32-3.83,8.32-1.13,0-2.21-1.3-2.21-2.81,0-.54.16-1.08.49-1.62,2.7-4.48,4.64-9.67,5.56-15.17h-3.62c-1.08,0-1.67-1.13-1.67-2.32s.59-2.27,1.67-2.27h3.62V2.32c0-1.51,1.19-2.21,2.38-2.21s2.32.7,2.32,2.21v6.91h2.54c.86,0,1.24,1.08,1.24,2.21s-.43,2.38-1.24,2.38h-2.54s2.21,3.08,3.94,5.78c.27-.22.65-.32,1.08-.32.65,0,.59-.05,1.35-.16.92-.92,1.78-2.27,2.7-3.51-1.67-1.89-3.29-3.29-4.7-4.48-.49-.43-.7-.92-.7-1.4,0-1.03.97-1.89,2-1.89.38,0,.76.16,1.08.43,1.13-1.62,2.21-3.83,3.19-6.1.38-.86,1.03-1.24,1.73-1.24,1.03,0,2.16.92,2.16,2.11,0,1.08-3.13,6.16-4.37,7.99.49.54,1.24,1.08,1.67,1.51,1.08-1.57,2.11-3.29,2.75-4.43.49-.86,1.19-1.19,1.84-1.19.97,0,1.89.86,1.89,1.89,0,.32-.05.7-.27,1.03-1.3,2.16-4.43,6.59-6.37,8.86,1.13-.16,2.75-.32,3.73-.49-.05-.27-.16-.7-.22-.97-.05-.16-.05-.32-.05-.49,0-.92.81-1.62,1.62-1.62,1.24,0,1.57,1.13,2.81,6.64.05.16.05.32.05.49,0,1.08-.92,1.73-1.84,1.73-.65,0-1.24-.38-1.35-1.24l-.16-.97c-3.19.54-6.26,1.03-10.04,1.4-.11,1.24-1.35,2.16-2.43,2.16-.7,0-1.3-.38-1.57-1.3-.49-1.73-.97-3.56-1.51-4.97v27.49c0,1.51-1.19,2.21-2.32,2.21s-2.38-.7-2.38-2.21v-21.44ZM749.25,38.61c-.43,7.24-2.75,10.21-5.51,10.21-1.89,0-4.59-1.46-7.4-6.26-2.38,1.94-7.94,6.37-9.61,6.37-1.19,0-2-1.19-2-2.43,0-.86.43-1.84,1.46-2.32,3.13-1.51,5.83-3.24,8.26-5.4-1.08-2.75-2-6.16-2.65-9.56h-6.7c-.11,1.3-.27,2.43-.59,3.24,6.05,3.46,6.32,4.75,6.32,5.51,0,1.46-1.4,2.92-2.65,2.92-.43,0-.86-.22-1.19-.65-.86-1.19-2.43-2.92-3.62-3.73-4.16,9.29-6.1,10.15-7.29,10.15-1.3,0-2.43-1.03-2.43-2.27,0-.54.22-1.08.65-1.62,2.59-3.02,5.56-8.37,6.37-13.55h-3.94c-1.46,0-2.16-1.08-2.16-2.16s.7-2.11,2.16-2.11h14.31c-.86-6.43-1.35-14.15-1.84-22.52v-.22c0-1.35,1.13-2.11,2.27-2.11s2.21.7,2.27,2.11c.05,2.16.16,4.21.27,6.21.38-.38.86-.59,1.4-.59.32,0,.7.11,1.03.38.86-1.51,1.94-3.78,2.7-5.83.32-.92,1.08-1.35,1.78-1.35,1.03,0,2.11.81,2.11,2,0,1.03-2.05,4.86-3.89,7.83.59.54,1.51,1.08,2.05,1.57,1.08-1.67,2.05-3.29,2.65-4.43.32-.65.92-.97,1.57-.97.97,0,1.94.7,1.94,1.73,0,1.57-5.67,9.07-6.32,9.88,1.3-.16,2.97-.32,4.05-.49-.05-.49-.16-.92-.27-1.3-.05-.22-.05-.38-.05-.54,0-1.03.7-1.62,1.46-1.62,1.62,0,2,2.16,2.86,7.24,0,.11.05.22.05.32,0,1.13-1.03,1.73-1.94,1.73-.7,0-1.35-.38-1.4-1.19,0-.43-.05-.92-.16-1.35-.76.16-1.94.32-2.75.43.59.81,1.24,2.05,1.78,3.08h2.38c1.51,0,2.21,1.08,2.21,2.11,0,1.08-.7,2.16-2.21,2.16h-10.48c.49,2.11,1.03,4.48,1.62,6.26,1.51-1.46,2.92-3.29,3.89-4.86.49-.76,1.08-1.08,1.67-1.08,1.19,0,2.32,1.24,2.32,2.54,0,1.73-4.7,6.21-5.99,7.4,1.19,2.27,2.54,4.27,3.29,4.27s1.46-1.35,1.67-5.56c.05-1.35,1.08-2.05,2.11-2.05,1.08,0,2.11.76,2.11,2.27v.22ZM734.18,11.18c.22,2.81.43,5.51.7,7.99.38-.22,1.03-.11,1.73-.22.76-.97,1.67-2.21,2.54-3.46-1.3-1.24-3.56-3.19-4.97-4.32ZM740.66,24.95c-.43-.86-1.08-2.05-1.46-2.54-.65.05-1.24.16-1.78.22-.49.05-.97.05-1.35.11-.27,0-.49,0-.7-.11.05.65.16,1.73.27,2.32h5.02Z"/><path d="M774.41,14.36c-4.1.7-8.86,1.46-16.79,1.84h-.11c-1.57,0-2.7-1.73-2.7-3.19,0-1.08.65-2,2.16-2h1.08c1.94-3.4,3.67-7.61,4.37-9.4.38-.97,1.4-1.46,2.43-1.46,1.4,0,2.81.81,2.81,2.16,0,1.13-2.92,6.53-4,8.48,3.35-.16,6.05-.43,8.32-.81-.49-.86-.97-1.67-1.3-2.21-.22-.38-.32-.81-.32-1.19,0-1.3,1.3-2.32,2.59-2.32.7,0,1.35.27,1.84.97,1.35,2,3.4,5.24,5.13,8.32.22.38.32.76.32,1.13,0,1.46-1.51,2.7-2.92,2.7-.76,0-1.46-.38-1.94-1.24l-.97-1.78ZM773.28,39.53h-11.72v7.4c0,1.24-1.19,1.84-2.43,1.84s-2.43-.59-2.43-1.84v-25.38c0-2.11,1.03-3.13,3.13-3.13h15.12c2.11,0,3.29,1.03,3.29,3.13v21.17c0,4.32-1.35,6.05-5.29,6.05-4.86,0-6.1-1.03-6.1-2.97,0-1.19.76-2.32,2.05-2.32.16,0,.27.05.38.05.97.16,1.73.22,2.27.22,1.46,0,1.73-.54,1.73-2.11v-2.11ZM773.28,23.92c0-.43-.22-.65-.65-.65h-10.42c-.43,0-.65.22-.65.65v2.97h11.72v-2.97ZM773.28,31.32h-11.72v3.78h11.72v-3.78ZM787.81,47.63c-4.54,0-6.1-2.05-6.1-5.78v-16.74c0-1.4,1.3-2.11,2.54-2.11s2.59.7,2.59,2.11v5.72c5.18-1.94,8.26-3.62,10.91-5.29.27-.16.54-.22.81-.22,1.35,0,2.86,1.46,2.86,2.81,0,.59-.27,1.19-.97,1.62-3.4,2.11-7.29,4.16-13.61,6.37v3.67c0,2.27.54,2.75,2.7,2.75h3.73c3.24,0,3.94-.92,4.81-6.32.22-1.35,1.13-1.94,2.16-1.94,1.4,0,2.92,1.13,2.92,2.92,0,.16,0,.32-.05.49-1.13,7.34-3.56,9.94-8.26,9.94h-7.02ZM787.91,21.87c-4.54,0-6.1-2.05-6.1-5.78V2c0-1.19,1.24-1.78,2.48-1.78s2.48.59,2.48,1.78v5.56c4.7-1.62,8.53-3.78,10.53-5.02.27-.16.59-.27.86-.27,1.3,0,2.65,1.24,2.65,2.54,0,.59-.32,1.19-1.13,1.67-2.16,1.3-7.07,4.05-12.91,6.1v1.67c0,2.27.76,2.75,3.13,2.75h2.92c3.73,0,4.59-.76,5.35-4.91.22-1.35,1.13-1.94,2.16-1.94,1.35,0,2.81,1.13,2.81,2.86,0,.16,0,.38-.05.54-1.08,6.64-4.27,8.32-8.15,8.32h-7.02Z"/><path d="M811.19,26.35c-1.24,0-2.59-1.08-2.59-2.38,0-.11,0-.22.05-.38.97-4.05,1.4-9.5,1.46-12.26,0-1.3,1.03-1.94,2.05-1.94.97,0,2,.65,2,2-.05,2.7-.27,8.53-1.3,13.45-.22,1.08-.92,1.51-1.67,1.51ZM825.39,47.3c-1.51,0-2.21-1.19-2.21-2.38,0-1.3.81-2.59,2.21-2.59h13.12v-13.23h-9.88c-1.46,0-2.21-1.24-2.21-2.48s.76-2.48,2.21-2.48h9.88v-10.91h-6.75c-2.16,9.07-3.83,9.13-4.64,9.13-1.46,0-3.08-1.46-3.08-2.97,0-.38.11-.76.32-1.13.16-.32.32-.59.49-.92-.43.38-.97.59-1.46.59-.65,0-1.24-.38-1.4-1.13-.49-1.94-1.08-4.16-1.51-5.67v35.53c0,1.4-1.24,2.11-2.54,2.11s-2.54-.7-2.54-2.11V2.27c0-1.4,1.24-2.11,2.54-2.11s2.54.7,2.54,2.11v6.21c.32-.38.76-.59,1.19-.59.65,0,1.3.38,1.62,1.3.76,1.94,1.73,4.7,2.16,6.91,1.51-3.46,2.27-7.45,2.75-12.69.11-1.24,1.08-1.78,2.11-1.78,1.4,0,2.92.97,2.92,2.54v.16c-.11,1.35-.27,2.7-.43,3.94h5.72V2.48c0-1.51,1.35-2.21,2.7-2.21s2.65.7,2.65,2.21v5.78h9.77c1.51,0,2.21,1.24,2.21,2.48s-.7,2.48-2.21,2.48h-9.77v10.91h8.75c1.51,0,2.21,1.24,2.21,2.48s-.7,2.48-2.21,2.48h-8.75v13.23h11.18c1.4,0,2.21,1.3,2.21,2.59,0,1.19-.7,2.38-2.21,2.38h-29.65Z"/><path d="M865.67,24.46c-1.57,0-3.02-1.57-3.02-3.13,0-.76.38-1.51,1.19-2.05,5.02-3.24,10.31-9.61,13.07-17.71.32-.97,1.24-1.4,2.21-1.4,1.51,0,3.19.97,3.19,2.43,0,.97-4.59,13.61-15.23,21.38-.43.32-.92.49-1.4.49ZM898.29,25.54c0-.27-.27-.49-.54-.49h-12.47c-.05,7.02-1.94,18.14-16.25,23.44-.38.16-.76.22-1.13.22-1.67,0-2.81-1.51-2.81-2.97,0-1.03.54-2,1.78-2.43,11.61-4.1,13.12-11.5,13.23-18.25h-6.91c-1.46,0-2.21-1.3-2.21-2.59s.76-2.59,2.21-2.59h27.27c2.16,0,3.24,1.51,3.24,3.35v8.48c0,11.66-.59,16.25-9.45,16.25-1.94,0-4.27-.22-7.07-.65-1.24-.16-1.89-1.4-1.89-2.59,0-1.35.81-2.7,2.48-2.7.11,0,.27.05.43.05,2.7.38,4.64.65,6.1.65,3.67,0,4-1.84,4-8.96v-8.21ZM906.82,23.87c-12.58-9.18-15.61-20.36-15.61-21.22,0-1.46,1.51-2.38,2.97-2.38.97,0,1.89.38,2.27,1.35,2.97,7.88,8.86,14.53,13.66,17.77.76.54,1.08,1.24,1.08,2,0,1.46-1.35,3.02-2.86,3.02-.49,0-1.03-.16-1.51-.54Z"/><path d="M949.27,27.05c1.13,2.65,2.05,5.78,2.16,9.45v.38c0,8.05-5.35,11.88-14.85,11.88h-.38c-2.48-.05-7.83-.97-10.96-2.21-1.89-.76-2.59-1.94-2.59-3.13,0-1.62,1.35-3.13,2.97-3.13.38,0,.7.05,1.08.22,4.16,1.84,6.64,2.38,10.26,2.54h.92c5.18,0,7.51-2.11,7.51-5.83,0-.27-.05-.54-.05-.86-.32-4.05-1.3-7.02-2.48-9.29h-23.81c-1.57,0-2.38-1.4-2.38-2.81s.81-2.81,2.38-2.81h20.41c-1.4-2.27-1.4-2.81-1.4-3.83,0-1.51.76-2.86,2.54-3.67,3.02-1.35,7.4-3.51,10.8-6.1.11-.05.16-.22.16-.32,0-.16-.16-.38-.32-.38h-27.49c-1.78,0-2.7-1.4-2.7-2.75s.86-2.65,2.7-2.65h31.32c2.75,0,4.64,2.05,4.64,4.32,0,2.48-2.21,5.18-14.26,11.34-.43.22-.59.59-.59.92s.16.7.32.97c.43.7.86,1.4,1.3,2.16h16.31c1.67,0,2.54,1.4,2.54,2.75,0,1.46-.86,2.86-2.54,2.86h-13.5Z"/><path d="M987.66,35.15h-10.53c-.16,3.94-.59,7.78-1.78,11.77-.38,1.3-1.13,1.78-2,1.78-1.35,0-2.75-1.24-2.75-2.81,0-.27.05-.59.16-.86,1.73-4.97,1.84-9.13,1.84-16.09v-13.72c-.92-.49-1.67-1.62-1.67-2.7,0-.54.22-1.13.65-1.57,3.19-3.35,5.24-7.45,6.1-9.5.38-.86,1.4-1.3,2.43-1.3,1.35,0,2.7.7,2.7,2,0,.38-.11.76-.32,1.19-.11.22-.22.43-.32.7h5.62c1.84,0,2.59.97,2.59,2.21,0,.59-.16,1.78-2.75,5.35h1.57c2.11,0,3.13,1.03,3.13,3.13v28.73c0,3.78-1.46,5.24-5.02,5.24-1.19,0-2.59-.16-4.21-.43-1.51-.27-2.16-1.4-2.16-2.59s.76-2.48,2.11-2.48c.11,0,.27.05.38.05,1.24.22,2.16.32,2.86.32,1.03,0,1.4-.32,1.4-1.24v-7.18ZM980.32,16.36h-2.54c-.43,0-.65.22-.65.65v4h3.19v-4.64ZM980.32,25.49h-3.19v4.91h3.19v-4.91ZM980.04,7.83c-.7,1.19-1.51,2.43-2.54,3.78h4.75c1.57-2.05,2.48-3.78,2.48-3.78h-4.7ZM987.77,17.01c0-.43-.22-.65-.65-.65h-2.7v4.64h3.35v-4ZM987.77,25.49h-3.35v4.91h3.35v-4.91ZM1007.91,31.37v9.67c1.78-.32,3.35-.7,4.64-1.08-.43-1.03-.86-2.05-1.35-3.08-.16-.32-.22-.59-.22-.86,0-1.3,1.24-2.21,2.43-2.21.7,0,1.35.32,1.78,1.13,3.02,6.21,4.1,10.26,4.1,11.29,0,1.57-1.46,2.54-2.75,2.54-.92,0-1.73-.49-1.94-1.57-.16-.97-.38-1.84-.59-2.75-4.54,1.46-12.42,2.75-18.9,3.19h-.16c-1.62,0-2.59-1.51-2.59-2.92,0-1.13.65-2.16,2-2.21,2.92-.16,5.89-.43,8.69-.76v-10.37h-5.94c-2.11,0-3.13-1.03-3.13-3.13V9.29c0-2.11,1.03-3.13,3.13-3.13h5.94v-3.78c0-1.51,1.24-2.21,2.43-2.21s2.43.7,2.43,2.21v3.78h6.16c2.11,0,3.13,1.03,3.13,3.13v18.95c0,2.11-1.03,3.13-3.13,3.13h-6.16ZM1003.05,11.02h-3.56c-.43,0-.65.22-.65.65v14.2c0,.43.22.65.65.65h3.56v-15.5ZM1012.34,11.66c0-.43-.22-.65-.65-.65h-3.78v15.5h3.78c.43,0,.65-.22.65-.65v-14.2Z"/><path d="M1038.64,8.64c2.16,0,3.24,1.08,3.24,3.24,0,9.77-1.46,17.01-3.78,22.68,3.73,3.51,4.05,4.1,4.05,5.13,0,1.51-1.3,2.86-2.59,2.86-.54,0-1.08-.27-1.57-.81-.59-.7-1.3-1.51-2.16-2.43-2.05,3.56-4.43,6.37-6.97,8.8-.43.43-.97.65-1.46.65-1.4,0-2.75-1.46-2.75-2.92,0-.54.22-1.13.7-1.57,2.59-2.38,5.02-5.08,6.97-8.53-1.67-1.57-3.46-3.19-5.18-4.54-.86-.7-1.35-1.51-1.35-2.54,0-.27,0-.49.05-.76.86-4.37,1.78-8.91,2.43-14.42h-1.84c-1.08,0-1.67-1.24-1.67-2.43s.59-2.43,1.67-2.43h2.27c.05-.32.32-3.19.32-6.26.05-1.46,1.24-2.21,2.43-2.21s2.38.76,2.38,2.21v.11c-.11,2.21-.22,4.21-.38,6.16h5.18ZM1033.07,13.5c-.65,5.99-1.51,10.42-2.32,13.61,0,.11-.05.22-.05.27,0,.22.11.43.27.59,1.13.97,2.32,2.05,3.51,3.13,1.67-4.54,2.7-10.1,2.7-17.17,0-.43-.11-.43-.49-.43h-3.62ZM1061.91,32.24c2.43,3.29,6.32,6.7,10.15,9.23.86.54,1.19,1.24,1.19,2,0,1.51-1.51,3.02-2.92,3.02-1.78,0-7.51-5.94-11.02-11.61v11.66c0,1.51-1.19,2.21-2.43,2.21s-2.43-.7-2.43-2.21v-11.66c-3.02,5.08-8.8,11.56-10.96,11.56-1.4,0-2.86-1.51-2.86-3.02,0-.7.32-1.4,1.13-1.94,3.94-2.54,7.72-5.78,10.1-9.23h-8.69c-1.46,0-2.21-1.19-2.21-2.38s.76-2.32,2.21-2.32h11.29v-3.46h-5.99c-2.59,0-3.67-1.08-3.67-3.67V7.94h-1.78c-1.46,0-2.21-1.19-2.21-2.38s.76-2.32,2.21-2.32h1.78v-.97c0-1.4,1.24-2.11,2.43-2.11s2.43.7,2.43,2.11v.97h15.01v-1.03c0-1.35,1.24-2.05,2.43-2.05s2.43.7,2.43,2.05v1.03h1.51c1.51,0,2.21,1.19,2.21,2.32s-.7,2.38-2.21,2.38h-1.51v12.47c0,2.59-1.08,3.67-3.67,3.67h-6.53v3.46h11.61c1.51,0,2.21,1.19,2.21,2.32s-.7,2.38-2.21,2.38h-9.02ZM1064.66,7.94h-15.01v3.35h15.01v-3.35ZM1064.66,15.66h-15.01v2.86c0,.54.27.81.81.81h13.39c.54,0,.81-.27.81-.81v-2.86Z"/><path d="M1085.51,46.77c-2.11,0-3.13-1.03-3.13-3.13v-16.79c-.49.43-.97.59-1.4.59-1.3,0-2.38-1.46-2.38-2.86,0-.43.11-.92.38-1.3,1.35-2,4.43-6.86,6.32-16.36h-3.73c-1.46,0-2.21-1.24-2.21-2.43s.76-2.43,2.21-2.43h14.47c1.51,0,2.21,1.19,2.21,2.43s-.7,2.43-2.21,2.43h-5.72c-.76,3.73-1.67,7.02-2.7,9.83h5.89c2.11,0,3.13,1.03,3.13,3.13v23.76c0,2.11-1.03,3.13-3.13,3.13h-7.99ZM1091.99,22.25c0-.43-.22-.65-.65-.65h-3.73c-.43,0-.65.22-.65.65v19.06c0,.43.22.65.65.65h3.73c.43,0,.65-.22.65-.65v-19.06ZM1117.64,25.33h-9.18c-.16,8.91-1.24,15.82-6.43,22.36-.54.7-1.24.97-2,.97-1.57,0-3.24-1.35-3.24-2.92,0-.54.22-1.08.65-1.62,4.59-5.45,5.62-10.8,5.78-18.79h-3.56c-1.46,0-2.21-1.24-2.21-2.48s.76-2.48,2.21-2.48h3.62V6.86h-2.59c-1.46,0-2.21-1.24-2.21-2.43s.76-2.43,2.21-2.43h23.65c1.51,0,2.21,1.19,2.21,2.43s-.7,2.43-2.21,2.43h-1.51v13.5h2.21c1.51,0,2.21,1.24,2.21,2.48s-.7,2.48-2.21,2.48h-2.21v21.11c0,1.51-1.3,2.21-2.59,2.21s-2.59-.7-2.59-2.21v-21.11ZM1117.64,6.86h-9.13v13.5h9.13V6.86Z"/><path d="M1135.83,22.9c-.16,0-.27.05-.43.05-1.62,0-2.75-1.62-2.75-3.02,0-1.08.59-2.05,2.05-2.21,8.32-1.03,11.72-2.92,14.36-6.59.54-.7,1.3-1.03,2.11-1.03,1.35,0,2.75.86,2.75,2.11,0,.38-.16.76-.43,1.19-3.67,5.4-8.53,7.94-17.66,9.5ZM1171.48,47.95c-3.67,0-5.67-1.35-5.67-6.43v-11.45c0-.27-.16-.59-.43-.59h-10.96c-2.7,10.85-8.15,15.44-17.82,19.06-.43.16-.86.27-1.24.27-1.62,0-2.65-1.46-2.65-2.86,0-1.08.54-2.11,1.78-2.54,8.21-2.97,12.37-6.37,14.53-13.93h-12.31c-1.46,0-2.21-1.24-2.21-2.54s.76-2.48,2.21-2.48h13.34c.22-1.4.38-2.92.54-4.59.11-1.35,1.35-2,2.59-2,1.35,0,2.75.81,2.75,2.32v.22c-.16,1.4-.32,2.75-.54,4.05h11.45c2.86,0,4.16,1.89,4.16,4.86v11.5c0,1.46.38,2.05,1.57,2.05h.59c2,0,2.54-.54,2.97-7.18.11-1.46,1.03-2.05,2.05-2.05,1.4,0,3.08,1.19,3.08,2.97v.38c-1.3,10.21-2.86,10.96-7.78,10.96h-2ZM1165.54,21.71c-4.43,0-6.26-2.05-6.26-5.83v-3.62c0-1.51,1.3-2.21,2.59-2.21s2.59.7,2.59,2.21v3.13c0,1.35.49,1.78,1.62,1.78h7.13c1.78,0,2.21-.49,2.81-2.54.11-.38.27-.7.49-.92-.81-.16-1.51-.59-1.51-1.24v-2.65c0-.59-.22-.65-.65-.65h-34.78c-.43,0-.65.22-.65.65v3.89c0,1.24-1.24,1.84-2.48,1.84s-2.48-.59-2.48-1.84v-6.37c0-2.11,1.03-3.13,3.13-3.13h16.79v-2.11c0-1.3,1.4-1.94,2.81-1.94s2.81.65,2.81,1.94v2.11h17.28c2.11,0,3.13,1.03,3.13,3.13v5.13c0,.38-.22.7-.59.92,1.08.49,1.94,1.46,1.94,2.59,0,.22-.05.49-.16.76-1.46,3.78-2.75,4.97-7.72,4.97h-7.83Z"/><path d="M1188.92,47.36c-1.46,0-2.21-1.19-2.21-2.43s.76-2.43,2.21-2.43h19.6v-5.89h-16.96c-1.46,0-2.21-1.24-2.21-2.43s.76-2.43,2.21-2.43h16.96v-5.08c-6.91.32-16.15.54-17.39.54-1.62,0-2.48-1.4-2.48-2.75,0-1.19.76-2.32,2.21-2.32,1.67,0,3.29.05,4.91.05,1.94-2.11,3.35-3.89,4.32-5.51h-6.64c-1.46,0-2.16-1.19-2.16-2.32,0-.16,0-.38.05-.54-.32.11-.65.16-.97.16-1.24,0-2.43-.59-2.43-1.84v-4.59c0-2.59,1.3-3.89,3.89-3.89h15.93v-1.3c0-1.51,1.51-2.21,3.02-2.21s3.02.7,3.02,2.21v1.3h16.25c2.59,0,3.89,1.3,3.89,3.89v4.54c0,1.24-1.24,1.84-2.43,1.84-.27,0-.59-.05-.86-.11.05.16.05.38.05.54,0,1.13-.7,2.32-2.16,2.32h-4.21c7.78,6.32,8.91,7.34,8.91,8.64,0,1.46-1.4,2.86-2.86,2.86-.59,0-1.19-.22-1.67-.76-.54-.59-1.13-1.19-1.67-1.73-2.65.22-7.61.49-13.66.76v5.29h17.12c1.51,0,2.21,1.19,2.21,2.43s-.7,2.43-2.21,2.43h-17.12v5.89h19.6c1.51,0,2.21,1.19,2.21,2.43s-.7,2.43-2.21,2.43h-44.07ZM1229.09,9.07c0-.54-.59-.81-1.13-.81h-34.34c-.54,0-.81.27-.81.81v3.13c.22-.05.43-.11.65-.11h35.1c.22,0,.38,0,.54.05v-3.08ZM1206.04,16.69c-.7,1.3-2.38,3.35-4,5.45,8.86-.05,16.9-.32,20.84-.49-.81-.81-1.57-1.46-2.11-1.94-.54-.49-.76-1.03-.76-1.51,0-.54.27-1.08.65-1.51h-14.63Z"/><path class="cls-1" d="M.58,69.06h13.9v5.2H5.87v5.08h8.61v5.12H5.87v12.61H.58v-28.01Z"/><path class="cls-1" d="M18.63,76.35h5.26v9.98c0,1.94.13,3.29.4,4.05.27.75.7,1.34,1.29,1.76.59.42,1.32.63,2.19.63s1.6-.21,2.2-.62c.6-.41,1.05-1.02,1.35-1.82.22-.6.32-1.87.32-3.83v-10.15h5.2v8.78c0,3.62-.29,6.09-.86,7.43-.7,1.63-1.73,2.87-3.08,3.74-1.36.87-3.08,1.3-5.18,1.3-2.27,0-4.11-.51-5.51-1.52-1.4-1.02-2.39-2.43-2.96-4.25-.41-1.26-.61-3.54-.61-6.86v-8.63Z"/><path class="cls-1" d="M42.05,76.35h5.2v2.12c1.18-.99,2.25-1.68,3.2-2.07.96-.39,1.94-.58,2.94-.58,2.05,0,3.8.72,5.23,2.15,1.2,1.22,1.81,3.02,1.81,5.41v13.69h-5.14v-9.07c0-2.47-.11-4.11-.33-4.93s-.61-1.43-1.16-1.85c-.55-.42-1.23-.64-2.04-.64-1.05,0-1.95.35-2.71,1.06-.75.7-1.28,1.68-1.57,2.92-.15.65-.23,2.05-.23,4.2v8.31h-5.2v-20.72Z"/><path class="cls-1" d="M85.74,80.54l-4.33,2.38c-.81-.85-1.62-1.44-2.41-1.77s-1.73-.5-2.79-.5c-1.94,0-3.52.58-4.72,1.74-1.2,1.16-1.8,2.65-1.8,4.46s.58,3.2,1.73,4.32,2.68,1.67,4.56,1.67c2.33,0,4.14-.79,5.43-2.38l4.1,2.81c-2.22,2.89-5.36,4.33-9.41,4.33-3.64,0-6.5-1.08-8.56-3.24s-3.09-4.68-3.09-7.58c0-2.01.5-3.85,1.5-5.54s2.4-3.02,4.2-3.98c1.8-.96,3.81-1.45,6.03-1.45,2.06,0,3.9.41,5.54,1.23,1.64.82,2.98,1.98,4.02,3.49Z"/><path class="cls-1" d="M91.05,68.71h5.2v7.64h3.08v4.47h-3.08v16.24h-5.2v-16.24h-2.67v-4.47h2.67v-7.64Z"/><path class="cls-1" d="M104.14,67.82c.91,0,1.69.33,2.34.99s.98,1.46.98,2.4-.32,1.72-.97,2.37c-.65.65-1.42.98-2.32.98s-1.71-.33-2.36-1c-.65-.67-.98-1.48-.98-2.43s.32-1.69.97-2.34,1.42-.97,2.34-.97ZM101.54,76.35h5.2v20.72h-5.2v-20.72Z"/><path class="cls-1" d="M121.19,75.82c1.96,0,3.79.49,5.51,1.47,1.72.98,3.06,2.3,4.03,3.98s1.45,3.49,1.45,5.43-.49,3.78-1.46,5.48c-.97,1.7-2.29,3.03-3.97,3.99-1.68.96-3.52,1.44-5.54,1.44-2.97,0-5.51-1.06-7.61-3.17-2.1-2.11-3.15-4.68-3.15-7.7,0-3.24,1.19-5.94,3.56-8.09,2.08-1.88,4.48-2.82,7.18-2.82ZM121.28,80.71c-1.61,0-2.96.56-4.03,1.68-1.07,1.12-1.61,2.56-1.61,4.31s.53,3.26,1.59,4.38c1.06,1.12,2.41,1.68,4.03,1.68s2.98-.56,4.06-1.69c1.08-1.13,1.62-2.58,1.62-4.36s-.53-3.22-1.59-4.33c-1.06-1.11-2.42-1.67-4.07-1.67Z"/><path class="cls-1" d="M136.43,76.35h5.2v2.12c1.18-.99,2.25-1.68,3.2-2.07.96-.39,1.94-.58,2.94-.58,2.05,0,3.8.72,5.23,2.15,1.2,1.22,1.81,3.02,1.81,5.41v13.69h-5.14v-9.07c0-2.47-.11-4.11-.33-4.93s-.61-1.43-1.16-1.85c-.55-.42-1.23-.64-2.04-.64-1.05,0-1.95.35-2.71,1.06-.75.7-1.28,1.68-1.57,2.92-.15.65-.23,2.05-.23,4.2v8.31h-5.2v-20.72Z"/><path class="cls-1" d="M175.12,76.35h5.2v20.72h-5.2v-2.19c-1.01.96-2.03,1.66-3.05,2.08-1.02.42-2.13.64-3.32.64-2.68,0-4.99-1.04-6.94-3.11-1.95-2.08-2.93-4.66-2.93-7.74s.94-5.82,2.83-7.86c1.89-2.04,4.18-3.07,6.89-3.07,1.24,0,2.41.24,3.5.71,1.09.47,2.1,1.17,3.02,2.11v-2.29ZM169.66,80.62c-1.61,0-2.94.57-4,1.7-1.06,1.14-1.59,2.59-1.59,4.37s.54,3.26,1.62,4.42c1.08,1.16,2.41,1.73,4,1.73s2.99-.57,4.06-1.7c1.08-1.14,1.61-2.62,1.61-4.47s-.54-3.26-1.61-4.38-2.44-1.68-4.08-1.68Z"/><path class="cls-1" d="M185.01,68.35h5.2v28.72h-5.2v-28.72Z"/><path class="cls-1" d="M205.8,76.35h5.2v2.38c.89-.98,1.88-1.71,2.96-2.19s2.27-.72,3.55-.72,2.46.32,3.51.95c1.04.63,1.88,1.56,2.52,2.78.83-1.22,1.84-2.15,3.04-2.78,1.2-.63,2.51-.95,3.94-.95s2.77.34,3.89,1.03c1.12.69,1.92,1.58,2.41,2.68.49,1.11.73,2.9.73,5.39v12.15h-5.24v-10.51c0-2.35-.29-3.94-.88-4.77-.58-.83-1.46-1.25-2.63-1.25-.89,0-1.69.25-2.39.76-.71.51-1.23,1.21-1.57,2.1-.34.89-.51,2.33-.51,4.31v9.35h-5.24v-10.04c0-1.85-.14-3.2-.41-4.03-.27-.83-.69-1.45-1.23-1.86s-1.21-.61-1.98-.61c-.87,0-1.65.26-2.36.77-.71.51-1.23,1.23-1.58,2.16s-.53,2.39-.53,4.38v9.22h-5.2v-20.72Z"/><path class="cls-1" d="M252.23,75.82c1.95,0,3.79.49,5.51,1.47,1.72.98,3.06,2.3,4.03,3.98s1.45,3.49,1.45,5.43-.49,3.78-1.46,5.48c-.97,1.7-2.29,3.03-3.97,3.99-1.68.96-3.52,1.44-5.54,1.44-2.97,0-5.51-1.06-7.61-3.17-2.1-2.11-3.15-4.68-3.15-7.7,0-3.24,1.19-5.94,3.56-8.09,2.08-1.88,4.47-2.82,7.18-2.82ZM252.31,80.71c-1.62,0-2.96.56-4.03,1.68-1.08,1.12-1.61,2.56-1.61,4.31s.53,3.26,1.59,4.38c1.06,1.12,2.41,1.68,4.04,1.68s2.98-.56,4.06-1.69,1.62-2.58,1.62-4.36-.53-3.22-1.59-4.33c-1.06-1.11-2.42-1.67-4.07-1.67Z"/><path class="cls-1" d="M266.89,68.35h5.2v28.72h-5.2v-28.72Z"/><path class="cls-1" d="M297.57,88.21h-16.7c.24,1.47.89,2.64,1.93,3.51,1.05.87,2.38,1.3,4.01,1.3,1.94,0,3.61-.68,5.01-2.04l4.38,2.06c-1.09,1.55-2.4,2.69-3.92,3.44-1.52.74-3.33,1.11-5.43,1.11-3.25,0-5.9-1.03-7.94-3.08-2.04-2.05-3.07-4.62-3.07-7.7s1.02-5.79,3.06-7.87c2.04-2.09,4.59-3.13,7.67-3.13,3.26,0,5.92,1.04,7.96,3.13,2.04,2.09,3.07,4.85,3.07,8.27l-.02.99ZM292.37,84.12c-.34-1.16-1.02-2.09-2.03-2.82s-2.18-1.09-3.52-1.09c-1.45,0-2.72.41-3.81,1.22-.69.51-1.32,1.4-1.91,2.69h11.27Z"/><path class="cls-1" d="M322.06,80.54l-4.33,2.38c-.81-.85-1.62-1.44-2.41-1.77-.79-.33-1.73-.5-2.79-.5-1.95,0-3.52.58-4.72,1.74-1.2,1.16-1.8,2.65-1.8,4.46s.58,3.2,1.74,4.32c1.16,1.12,2.67,1.67,4.56,1.67,2.33,0,4.14-.79,5.43-2.38l4.1,2.81c-2.22,2.89-5.36,4.33-9.41,4.33-3.64,0-6.5-1.08-8.56-3.24-2.06-2.16-3.09-4.68-3.09-7.58,0-2.01.5-3.85,1.5-5.54s2.4-3.02,4.2-3.98c1.8-.96,3.8-1.45,6.03-1.45,2.06,0,3.9.41,5.54,1.23,1.64.82,2.98,1.98,4.02,3.49Z"/><path class="cls-1" d="M326.72,76.35h5.26v9.98c0,1.94.13,3.29.4,4.05.27.75.7,1.34,1.29,1.76.59.42,1.32.63,2.19.63s1.6-.21,2.2-.62c.61-.41,1.05-1.02,1.35-1.82.22-.6.32-1.87.32-3.83v-10.15h5.2v8.78c0,3.62-.29,6.09-.86,7.43-.7,1.63-1.73,2.87-3.08,3.74-1.36.87-3.08,1.3-5.18,1.3-2.27,0-4.11-.51-5.51-1.52-1.4-1.02-2.39-2.43-2.96-4.25-.41-1.26-.61-3.54-.61-6.86v-8.63Z"/><path class="cls-1" d="M349.57,68.35h5.2v28.72h-5.2v-28.72Z"/><path class="cls-1" d="M374.79,76.35h5.2v20.72h-5.2v-2.19c-1.01.96-2.03,1.66-3.05,2.08-1.02.42-2.13.64-3.32.64-2.68,0-4.99-1.04-6.94-3.11-1.95-2.08-2.93-4.66-2.93-7.74s.94-5.82,2.83-7.86,4.18-3.07,6.89-3.07c1.24,0,2.41.24,3.5.71,1.09.47,2.1,1.17,3.03,2.11v-2.29ZM369.32,80.62c-1.61,0-2.94.57-4,1.7-1.06,1.14-1.59,2.59-1.59,4.37s.54,3.26,1.62,4.42c1.08,1.16,2.41,1.73,4,1.73s2.99-.57,4.06-1.7c1.08-1.14,1.61-2.62,1.61-4.47s-.54-3.26-1.61-4.38c-1.08-1.12-2.43-1.68-4.08-1.68Z"/><path class="cls-1" d="M384.02,76.35h4.46v2.61c.48-1.03,1.12-1.81,1.92-2.34.8-.53,1.68-.8,2.63-.8.67,0,1.38.18,2.11.53l-1.62,4.47c-.61-.3-1.11-.46-1.5-.46-.8,0-1.48.5-2.03,1.49-.55.99-.83,2.93-.83,5.83l.02,1.01v8.38h-5.16v-20.72Z"/><path class="cls-1" d="M428.91,80.54l-4.33,2.38c-.81-.85-1.62-1.44-2.41-1.77-.79-.33-1.73-.5-2.79-.5-1.95,0-3.52.58-4.72,1.74-1.2,1.16-1.8,2.65-1.8,4.46s.58,3.2,1.74,4.32c1.16,1.12,2.67,1.67,4.56,1.67,2.33,0,4.14-.79,5.43-2.38l4.1,2.81c-2.22,2.89-5.36,4.33-9.41,4.33-3.64,0-6.5-1.08-8.56-3.24-2.06-2.16-3.09-4.68-3.09-7.58,0-2.01.5-3.85,1.5-5.54s2.4-3.02,4.2-3.98c1.8-.96,3.8-1.45,6.03-1.45,2.06,0,3.9.41,5.54,1.23,1.64.82,2.98,1.98,4.02,3.49Z"/><path class="cls-1" d="M448.88,76.35h5.2v20.72h-5.2v-2.19c-1.01.96-2.03,1.66-3.05,2.08-1.02.42-2.13.64-3.32.64-2.68,0-4.99-1.04-6.94-3.11-1.95-2.08-2.93-4.66-2.93-7.74s.94-5.82,2.83-7.86,4.18-3.07,6.89-3.07c1.24,0,2.41.24,3.5.71,1.09.47,2.1,1.17,3.03,2.11v-2.29ZM443.42,80.62c-1.61,0-2.94.57-4,1.7-1.06,1.14-1.59,2.59-1.59,4.37s.54,3.26,1.62,4.42c1.08,1.16,2.41,1.73,4,1.73s2.99-.57,4.06-1.7c1.08-1.14,1.61-2.62,1.61-4.47s-.54-3.26-1.61-4.38c-1.08-1.12-2.43-1.68-4.08-1.68Z"/><path class="cls-1" d="M459.96,68.71h5.2v7.64h3.08v4.47h-3.08v16.24h-5.2v-16.24h-2.67v-4.47h2.67v-7.64Z"/><path class="cls-1" d="M486.32,76.35h5.2v20.72h-5.2v-2.19c-1.01.96-2.03,1.66-3.05,2.08-1.02.42-2.13.64-3.32.64-2.68,0-4.99-1.04-6.94-3.11-1.95-2.08-2.93-4.66-2.93-7.74s.94-5.82,2.83-7.86,4.18-3.07,6.89-3.07c1.24,0,2.41.24,3.5.71,1.09.47,2.1,1.17,3.03,2.11v-2.29ZM480.86,80.62c-1.61,0-2.94.57-4,1.7-1.06,1.14-1.59,2.59-1.59,4.37s.54,3.26,1.62,4.42c1.08,1.16,2.41,1.73,4,1.73s2.99-.57,4.06-1.7c1.08-1.14,1.61-2.62,1.61-4.47s-.54-3.26-1.61-4.38c-1.08-1.12-2.43-1.68-4.08-1.68Z"/><path class="cls-1" d="M496.2,68.35h5.2v28.72h-5.2v-28.72Z"/><path class="cls-1" d="M503.83,76.35h5.31l5.38,13,5.94-13h5.33l-12.98,28.3h-5.37l4.26-9.12-7.88-19.17Z"/><path class="cls-1" d="M541.43,79.24l-3.22,3.22c-1.31-1.29-2.49-1.94-3.56-1.94-.58,0-1.04.12-1.37.37-.33.25-.5.56-.5.92,0,.28.1.54.31.77.21.24.73.56,1.55.96l1.9.95c2.01.99,3.38,2,4.13,3.03.75,1.03,1.12,2.24,1.12,3.62,0,1.84-.68,3.38-2.03,4.61-1.35,1.23-3.16,1.85-5.44,1.85-3.02,0-5.43-1.18-7.24-3.54l3.2-3.49c.61.71,1.32,1.29,2.14,1.72.82.44,1.54.66,2.18.66.69,0,1.24-.17,1.66-.5s.63-.71.63-1.14c0-.8-.75-1.58-2.27-2.34l-1.75-.88c-3.35-1.69-5.03-3.8-5.03-6.34,0-1.64.63-3.04,1.89-4.2,1.26-1.16,2.88-1.74,4.85-1.74,1.35,0,2.61.29,3.8.89,1.19.59,2.19,1.44,3.02,2.54Z"/><path class="cls-1" d="M546.54,68.71h5.2v7.64h3.08v4.47h-3.08v16.24h-5.2v-16.24h-2.67v-4.47h2.67v-7.64Z"/><path class="cls-1" d="M567.94,68.35h5.2v28.72h-5.2v-28.72Z"/><path class="cls-1" d="M593.15,76.35h5.2v20.72h-5.2v-2.19c-1.01.96-2.03,1.66-3.05,2.08-1.02.42-2.13.64-3.32.64-2.68,0-4.99-1.04-6.94-3.11-1.95-2.08-2.93-4.66-2.93-7.74s.94-5.82,2.83-7.86,4.18-3.07,6.89-3.07c1.24,0,2.41.24,3.5.71,1.09.47,2.1,1.17,3.03,2.11v-2.29ZM587.69,80.62c-1.61,0-2.94.57-4,1.7-1.06,1.14-1.59,2.59-1.59,4.37s.54,3.26,1.62,4.42c1.08,1.16,2.41,1.73,4,1.73s2.99-.57,4.06-1.7c1.08-1.14,1.61-2.62,1.61-4.47s-.54-3.26-1.61-4.38c-1.08-1.12-2.43-1.68-4.08-1.68Z"/><path class="cls-1" d="M608.77,68.35v10.28c.94-.94,1.95-1.64,3.05-2.11,1.09-.47,2.26-.71,3.5-.71,2.7,0,5,1.02,6.89,3.07s2.84,4.67,2.84,7.86-.98,5.67-2.93,7.74c-1.96,2.08-4.27,3.11-6.95,3.11-1.19,0-2.3-.21-3.33-.64-1.03-.43-2.05-1.12-3.07-2.08v2.19h-5.16v-28.72h5.16ZM614.23,80.62c-1.64,0-3,.56-4.08,1.68s-1.62,2.58-1.62,4.38.54,3.33,1.62,4.47c1.08,1.14,2.44,1.7,4.08,1.7s2.92-.58,4.01-1.73c1.08-1.15,1.63-2.63,1.63-4.42s-.53-3.23-1.6-4.37c-1.07-1.14-2.41-1.7-4.04-1.7Z"/><path class="cls-2" d="M.18,133.91v-23.7h4.91c3.54,0,6.12.29,7.72.85,2.3.81,4.1,2.2,5.39,4.19,1.29,1.99,1.94,4.36,1.94,7.11,0,2.37-.51,4.46-1.54,6.27s-2.36,3.14-4,4-3.93,1.29-6.89,1.29H.18ZM2.46,131.67h2.74c3.28,0,5.55-.2,6.82-.61,1.78-.58,3.19-1.62,4.21-3.13,1.02-1.51,1.53-3.35,1.53-5.53s-.55-4.24-1.66-5.86c-1.11-1.62-2.65-2.73-4.62-3.33-1.48-.45-3.93-.68-7.33-.68h-1.68v19.14Z"/><path class="cls-2" d="M39.13,128.1l1.9,1c-.62,1.22-1.34,2.21-2.16,2.96-.82.75-1.74,1.32-2.76,1.72-1.02.39-2.18.59-3.47.59-2.86,0-5.1-.94-6.71-2.81-1.61-1.88-2.42-3.99-2.42-6.36,0-2.22.68-4.21,2.05-5.95,1.73-2.21,4.05-3.32,6.95-3.32s5.38,1.13,7.16,3.4c1.27,1.6,1.91,3.6,1.94,5.99h-15.77c.04,2.04.69,3.71,1.95,5.01,1.26,1.3,2.81,1.95,4.66,1.95.89,0,1.76-.16,2.6-.47s1.56-.72,2.15-1.24,1.23-1.34,1.92-2.49ZM39.13,123.38c-.3-1.2-.74-2.16-1.31-2.88s-1.34-1.3-2.28-1.74c-.95-.44-1.94-.66-2.98-.66-1.72,0-3.2.55-4.44,1.66-.9.81-1.59,2.01-2.05,3.63h13.07Z"/><path class="cls-2" d="M45.85,116.38h2.26v3.22c.89-1.22,1.92-2.14,3.07-2.76,1.16-.61,2.45-.92,3.88-.92,2.49,0,4.62.9,6.39,2.69,1.77,1.79,2.66,3.95,2.66,6.48s-.88,4.77-2.63,6.57c-1.75,1.8-3.87,2.7-6.35,2.7-1.4,0-2.68-.29-3.85-.87-1.17-.58-2.23-1.44-3.17-2.59v9.43h-2.26v-23.94ZM54.87,118.11c-1.95,0-3.59.68-4.93,2.04-1.33,1.36-2,3.06-2,5.09,0,1.33.3,2.53.89,3.59s1.45,1.9,2.56,2.53c1.11.62,2.28.93,3.51.93s2.35-.31,3.42-.94c1.07-.63,1.92-1.5,2.55-2.63.63-1.13.95-2.31.95-3.54s-.31-2.42-.94-3.54c-.63-1.12-1.47-1.98-2.53-2.6-1.06-.62-2.22-.92-3.47-.92Z"/><path class="cls-2" d="M85.79,116.38v17.53h-2.22v-3.01c-.95,1.15-2.01,2.01-3.18,2.59-1.18.58-2.46.87-3.86.87-2.48,0-4.6-.9-6.36-2.7-1.76-1.8-2.63-3.99-2.63-6.57s.89-4.68,2.66-6.48,3.9-2.69,6.4-2.69c1.44,0,2.74.31,3.91.92,1.17.61,2.19,1.53,3.07,2.76v-3.22h2.22ZM76.78,118.11c-1.25,0-2.41.31-3.48.92-1.06.62-1.91,1.48-2.54,2.6-.63,1.12-.94,2.3-.94,3.54s.32,2.41.95,3.54c.63,1.13,1.48,2,2.55,2.63,1.07.63,2.21.94,3.44.94s2.4-.31,3.51-.93c1.1-.62,1.96-1.46,2.55-2.53.6-1.06.89-2.26.89-3.59,0-2.03-.67-3.72-2-5.09-1.34-1.36-2.98-2.04-4.93-2.04Z"/><path class="cls-2" d="M90.02,116.38h2.3v2.56c.69-1.01,1.41-1.76,2.18-2.26.76-.5,1.56-.75,2.38-.75.62,0,1.29.2,2,.6l-1.18,1.9c-.47-.2-.87-.31-1.19-.31-.75,0-1.48.31-2.18.93-.7.62-1.23,1.58-1.6,2.88-.28,1-.42,3.02-.42,6.06v5.93h-2.3v-17.53Z"/><path class="cls-2" d="M102.76,109.87h2.26v6.51h3.58v1.95h-3.58v15.58h-2.26v-15.58h-3.08v-1.95h3.08v-6.51Z"/><path class="cls-2" d="M111.96,116.38h2.26v3.03c.79-1.12,1.59-1.93,2.42-2.45,1.14-.69,2.34-1.03,3.6-1.03.85,0,1.66.17,2.42.5.76.33,1.39.78,1.87,1.33.48.55.9,1.34,1.26,2.38.75-1.37,1.69-2.42,2.81-3.13,1.13-.71,2.34-1.07,3.63-1.07,1.21,0,2.28.31,3.21.92.93.61,1.62,1.47,2.07,2.56s.68,2.74.68,4.93v9.57h-2.3v-9.57c0-1.88-.13-3.17-.4-3.88-.27-.7-.73-1.27-1.37-1.7-.65-.43-1.42-.64-2.32-.64-1.09,0-2.09.32-3,.97-.9.64-1.57,1.5-1.98,2.58s-.63,2.87-.63,5.38v6.86h-2.26v-8.97c0-2.12-.13-3.55-.4-4.31-.26-.76-.72-1.36-1.38-1.82-.66-.46-1.43-.68-2.34-.68-1.04,0-2.02.31-2.92.94-.91.63-1.58,1.47-2.01,2.54-.44,1.06-.65,2.69-.65,4.88v7.43h-2.26v-17.53Z"/><path class="cls-2" d="M157.69,128.1l1.9,1c-.62,1.22-1.34,2.21-2.16,2.96-.82.75-1.74,1.32-2.76,1.72-1.02.39-2.18.59-3.47.59-2.86,0-5.1-.94-6.71-2.81-1.61-1.88-2.42-3.99-2.42-6.36,0-2.22.68-4.21,2.05-5.95,1.73-2.21,4.05-3.32,6.95-3.32s5.38,1.13,7.16,3.4c1.27,1.6,1.91,3.6,1.94,5.99h-15.77c.04,2.04.69,3.71,1.95,5.01,1.26,1.3,2.81,1.95,4.66,1.95.89,0,1.76-.16,2.6-.47s1.56-.72,2.15-1.24,1.23-1.34,1.92-2.49ZM157.69,123.38c-.3-1.2-.74-2.16-1.31-2.88s-1.34-1.3-2.28-1.74c-.95-.44-1.94-.66-2.98-.66-1.72,0-3.2.55-4.44,1.66-.9.81-1.59,2.01-2.05,3.63h13.07Z"/><path class="cls-2" d="M164.38,116.38h2.26v3.14c.9-1.2,1.9-2.1,3-2.7,1.1-.6,2.29-.89,3.58-.89s2.47.33,3.49,1c1.02.67,1.76,1.56,2.25,2.69.48,1.13.73,2.88.73,5.27v9.02h-2.26v-8.36c0-2.02-.08-3.37-.25-4.04-.26-1.16-.76-2.03-1.5-2.62-.74-.59-1.71-.88-2.9-.88-1.36,0-2.59.45-3.67,1.35s-1.79,2.02-2.14,3.35c-.21.87-.32,2.46-.32,4.77v6.43h-2.26v-17.53Z"/><path class="cls-2" d="M186.47,109.87h2.26v6.51h3.58v1.95h-3.58v15.58h-2.26v-15.58h-3.08v-1.95h3.08v-6.51Z"/><path class="cls-2" d="M213.12,115.93c2.7,0,4.94.98,6.71,2.93,1.61,1.78,2.42,3.89,2.42,6.33s-.85,4.59-2.56,6.42c-1.71,1.83-3.9,2.75-6.58,2.75s-4.89-.92-6.59-2.75c-1.71-1.83-2.56-3.97-2.56-6.42s.81-4.53,2.42-6.32c1.78-1.97,4.02-2.95,6.73-2.95ZM213.11,118.14c-1.88,0-3.49.69-4.84,2.08-1.35,1.39-2.02,3.06-2.02,5.03,0,1.27.31,2.45.92,3.54.61,1.1,1.44,1.94,2.49,2.54,1.05.6,2.19.89,3.44.89s2.4-.3,3.44-.89c1.05-.6,1.88-1.44,2.49-2.54.62-1.1.92-2.28.92-3.54,0-1.97-.68-3.64-2.03-5.03s-2.96-2.08-4.83-2.08Z"/><path class="cls-2" d="M233.65,109.62v2.21c-.83-.35-1.54-.53-2.13-.53-.44,0-.81.09-1.1.27-.29.18-.47.38-.55.61-.08.23-.11.85-.11,1.84v2.37s3.66,0,3.66,0v1.95h-3.66v15.58h-2.27v-15.58h-2.3v-1.95h2.3v-2.74c0-1.26.12-2.15.35-2.69.23-.54.62-.97,1.18-1.3.55-.33,1.22-.49,2.01-.49.73,0,1.61.15,2.63.45Z"/><path class="cls-2" d="M254.74,118.3l-1.45,1.5c-1.21-1.17-2.39-1.76-3.54-1.76-.73,0-1.36.24-1.88.72s-.78,1.05-.78,1.69c0,.57.21,1.11.65,1.63.43.53,1.33,1.14,2.71,1.85,1.68.87,2.82,1.71,3.42,2.51.59.82.89,1.74.89,2.76,0,1.44-.51,2.66-1.52,3.66-1.01,1-2.28,1.5-3.79,1.5-1.01,0-1.98-.22-2.9-.66-.92-.44-1.68-1.05-2.28-1.82l1.42-1.61c1.15,1.3,2.38,1.95,3.67,1.95.9,0,1.67-.29,2.31-.87.63-.58.95-1.26.95-2.05,0-.64-.21-1.22-.63-1.72-.42-.49-1.37-1.12-2.84-1.87-1.58-.82-2.66-1.62-3.23-2.42-.57-.79-.86-1.7-.86-2.72,0-1.33.45-2.44,1.36-3.32.91-.88,2.06-1.32,3.45-1.32,1.61,0,3.24.79,4.88,2.37Z"/><path class="cls-2" d="M275.75,120.02l-1.79,1.11c-1.54-2.05-3.65-3.08-6.33-3.08-2.13,0-3.91.69-5.32,2.06-1.41,1.37-2.12,3.04-2.12,5,0,1.28.32,2.48.97,3.61.65,1.13,1.54,2,2.67,2.62,1.13.62,2.4.93,3.81.93,2.58,0,4.68-1.03,6.31-3.08l1.79,1.18c-.84,1.26-1.96,2.24-3.38,2.94-1.41.7-3.02,1.04-4.83,1.04-2.77,0-5.07-.88-6.9-2.64-1.83-1.76-2.74-3.9-2.74-6.43,0-1.7.43-3.27,1.28-4.73.85-1.46,2.03-2.59,3.52-3.41,1.49-.82,3.16-1.22,5.01-1.22,1.16,0,2.28.18,3.36.53,1.08.36,2,.82,2.75,1.39s1.39,1.29,1.92,2.17Z"/><path class="cls-2" d="M280.87,109.16c.51,0,.95.18,1.32.55.36.37.55.81.55,1.32s-.18.94-.55,1.3c-.36.37-.8.55-1.32.55s-.94-.18-1.3-.55c-.36-.36-.54-.8-.54-1.3s.18-.96.54-1.32c.36-.37.8-.55,1.3-.55ZM279.75,116.38h2.26v17.53h-2.26v-17.53Z"/><path class="cls-2" d="M301.45,128.1l1.9,1c-.62,1.22-1.34,2.21-2.16,2.96-.82.75-1.74,1.32-2.76,1.72-1.02.39-2.18.59-3.47.59-2.86,0-5.1-.94-6.71-2.81-1.61-1.88-2.42-3.99-2.42-6.36,0-2.22.68-4.21,2.05-5.95,1.73-2.21,4.05-3.32,6.95-3.32s5.38,1.13,7.16,3.4c1.27,1.6,1.91,3.6,1.94,5.99h-15.77c.04,2.04.69,3.71,1.95,5.01,1.26,1.3,2.81,1.95,4.66,1.95.89,0,1.76-.16,2.61-.47.84-.31,1.56-.72,2.15-1.24s1.23-1.34,1.92-2.49ZM301.45,123.38c-.3-1.2-.74-2.16-1.32-2.88-.58-.72-1.34-1.3-2.28-1.74-.95-.44-1.94-.66-2.98-.66-1.72,0-3.2.55-4.44,1.66-.9.81-1.59,2.01-2.05,3.63h13.07Z"/><path class="cls-2" d="M308.14,116.38h2.26v3.14c.9-1.2,1.9-2.1,3-2.7,1.1-.6,2.29-.89,3.58-.89s2.47.33,3.49,1c1.02.67,1.76,1.56,2.25,2.69.48,1.13.72,2.88.72,5.27v9.02h-2.26v-8.36c0-2.02-.08-3.37-.25-4.04-.26-1.16-.76-2.03-1.5-2.62-.74-.59-1.71-.88-2.9-.88-1.36,0-2.59.45-3.67,1.35-1.08.9-1.79,2.02-2.14,3.35-.21.87-.32,2.46-.32,4.77v6.43h-2.26v-17.53Z"/><path class="cls-2" d="M345.28,120.02l-1.79,1.11c-1.54-2.05-3.65-3.08-6.33-3.08-2.13,0-3.91.69-5.32,2.06-1.41,1.37-2.12,3.04-2.12,5,0,1.28.32,2.48.97,3.61.65,1.13,1.54,2,2.67,2.62,1.13.62,2.4.93,3.81.93,2.58,0,4.68-1.03,6.31-3.08l1.79,1.18c-.84,1.26-1.96,2.24-3.38,2.94-1.41.7-3.02,1.04-4.83,1.04-2.77,0-5.07-.88-6.9-2.64-1.83-1.76-2.74-3.9-2.74-6.43,0-1.7.43-3.27,1.28-4.73.85-1.46,2.03-2.59,3.52-3.41,1.49-.82,3.16-1.22,5.01-1.22,1.16,0,2.28.18,3.36.53,1.08.36,2,.82,2.75,1.39s1.39,1.29,1.92,2.17Z"/><path class="cls-2" d="M364.38,128.1l1.9,1c-.62,1.22-1.34,2.21-2.16,2.96-.82.75-1.74,1.32-2.76,1.72-1.02.39-2.18.59-3.47.59-2.86,0-5.1-.94-6.71-2.81-1.61-1.88-2.42-3.99-2.42-6.36,0-2.22.68-4.21,2.05-5.95,1.73-2.21,4.05-3.32,6.95-3.32s5.38,1.13,7.16,3.4c1.27,1.6,1.91,3.6,1.94,5.99h-15.77c.04,2.04.69,3.71,1.95,5.01,1.26,1.3,2.81,1.95,4.66,1.95.89,0,1.76-.16,2.61-.47.84-.31,1.56-.72,2.15-1.24s1.23-1.34,1.92-2.49ZM364.38,123.38c-.3-1.2-.74-2.16-1.32-2.88-.58-.72-1.34-1.3-2.28-1.74-.95-.44-1.94-.66-2.98-.66-1.72,0-3.2.55-4.44,1.66-.9.81-1.59,2.01-2.05,3.63h13.07Z"/><path class="cls-2" d="M397.67,116.38v17.53h-2.22v-3.01c-.95,1.15-2.01,2.01-3.18,2.59-1.18.58-2.46.87-3.86.87-2.48,0-4.6-.9-6.36-2.7-1.76-1.8-2.63-3.99-2.63-6.57s.89-4.68,2.66-6.48,3.9-2.69,6.4-2.69c1.44,0,2.74.31,3.91.92,1.17.61,2.19,1.53,3.07,2.76v-3.22h2.22ZM388.65,118.11c-1.25,0-2.41.31-3.48.92-1.06.62-1.91,1.48-2.54,2.6-.63,1.12-.94,2.3-.94,3.54s.32,2.41.95,3.54c.63,1.13,1.48,2,2.55,2.63,1.07.63,2.21.94,3.44.94s2.4-.31,3.51-.93c1.1-.62,1.96-1.46,2.55-2.53s.89-2.26.89-3.59c0-2.03-.67-3.72-2-5.09-1.34-1.36-2.98-2.04-4.93-2.04Z"/><path class="cls-2" d="M402.74,116.38h2.26v3.14c.9-1.2,1.9-2.1,3-2.7,1.1-.6,2.29-.89,3.58-.89s2.47.33,3.49,1c1.02.67,1.76,1.56,2.25,2.69.48,1.13.72,2.88.72,5.27v9.02h-2.26v-8.36c0-2.02-.08-3.37-.25-4.04-.26-1.16-.76-2.03-1.5-2.62-.74-.59-1.71-.88-2.9-.88-1.36,0-2.59.45-3.67,1.35-1.08.9-1.79,2.02-2.14,3.35-.21.87-.32,2.46-.32,4.77v6.43h-2.26v-17.53Z"/><path class="cls-2" d="M440.37,109.62v24.3h-2.22v-3.01c-.95,1.15-2.01,2.01-3.18,2.59-1.18.58-2.46.87-3.86.87-2.48,0-4.6-.9-6.36-2.7-1.76-1.8-2.63-3.99-2.63-6.57s.89-4.68,2.66-6.48,3.9-2.69,6.4-2.69c1.44,0,2.74.31,3.91.92,1.17.61,2.19,1.53,3.07,2.76v-9.99h2.22ZM431.35,118.11c-1.25,0-2.41.31-3.48.92-1.06.62-1.91,1.48-2.54,2.6-.63,1.12-.94,2.3-.94,3.54s.32,2.41.95,3.54c.63,1.13,1.48,2,2.55,2.63,1.07.63,2.21.94,3.44.94s2.4-.31,3.51-.93c1.1-.62,1.96-1.46,2.55-2.53s.89-2.26.89-3.59c0-2.03-.67-3.72-2-5.09-1.34-1.36-2.98-2.04-4.93-2.04Z"/><path class="cls-2" d="M456.58,109.87h2.26v6.51h3.58v1.95h-3.58v15.58h-2.26v-15.58h-3.08v-1.95h3.08v-6.51Z"/><path class="cls-2" d="M480.55,128.1l1.9,1c-.62,1.22-1.34,2.21-2.16,2.96-.82.75-1.74,1.32-2.76,1.72-1.02.39-2.18.59-3.47.59-2.86,0-5.1-.94-6.71-2.81-1.61-1.88-2.42-3.99-2.42-6.36,0-2.22.68-4.21,2.05-5.95,1.73-2.21,4.05-3.32,6.95-3.32s5.38,1.13,7.16,3.4c1.27,1.6,1.91,3.6,1.94,5.99h-15.77c.04,2.04.69,3.71,1.95,5.01,1.26,1.3,2.81,1.95,4.66,1.95.89,0,1.76-.16,2.61-.47.84-.31,1.56-.72,2.15-1.24s1.23-1.34,1.92-2.49ZM480.55,123.38c-.3-1.2-.74-2.16-1.32-2.88-.58-.72-1.34-1.3-2.28-1.74-.95-.44-1.94-.66-2.98-.66-1.72,0-3.2.55-4.44,1.66-.9.81-1.59,2.01-2.05,3.63h13.07Z"/><path class="cls-2" d="M504.26,120.02l-1.79,1.11c-1.54-2.05-3.65-3.08-6.33-3.08-2.13,0-3.91.69-5.32,2.06-1.41,1.37-2.12,3.04-2.12,5,0,1.28.32,2.48.97,3.61.65,1.13,1.54,2,2.67,2.62,1.13.62,2.4.93,3.81.93,2.58,0,4.68-1.03,6.31-3.08l1.79,1.18c-.84,1.26-1.96,2.24-3.38,2.94-1.41.7-3.02,1.04-4.83,1.04-2.77,0-5.07-.88-6.9-2.64-1.83-1.76-2.74-3.9-2.74-6.43,0-1.7.43-3.27,1.28-4.73.85-1.46,2.03-2.59,3.52-3.41,1.49-.82,3.16-1.22,5.01-1.22,1.16,0,2.28.18,3.36.53,1.08.36,2,.82,2.75,1.39s1.39,1.29,1.92,2.17Z"/><path class="cls-2" d="M508.59,109.62h2.26v9.91c.91-1.2,1.92-2.1,3.01-2.7,1.1-.6,2.28-.89,3.56-.89s2.47.33,3.49,1c1.02.67,1.76,1.56,2.25,2.68.48,1.12.72,2.88.72,5.28v9.02h-2.26v-8.36c0-2.02-.08-3.37-.24-4.04-.28-1.16-.79-2.03-1.52-2.62-.74-.59-1.7-.88-2.89-.88-1.36,0-2.59.45-3.67,1.35-1.08.9-1.79,2.02-2.13,3.35-.21.86-.32,2.45-.32,4.77v6.43h-2.26v-24.3Z"/><path class="cls-2" d="M528.71,116.38h2.26v3.14c.9-1.2,1.9-2.1,3-2.7,1.1-.6,2.29-.89,3.58-.89s2.47.33,3.49,1c1.02.67,1.76,1.56,2.25,2.69.48,1.13.72,2.88.72,5.27v9.02h-2.26v-8.36c0-2.02-.08-3.37-.25-4.04-.26-1.16-.76-2.03-1.5-2.62-.74-.59-1.71-.88-2.9-.88-1.36,0-2.59.45-3.67,1.35-1.08.9-1.79,2.02-2.14,3.35-.21.87-.32,2.46-.32,4.77v6.43h-2.26v-17.53Z"/><path class="cls-2" d="M557.14,115.93c2.7,0,4.94.98,6.71,2.93,1.61,1.78,2.42,3.89,2.42,6.33s-.85,4.59-2.56,6.42c-1.71,1.83-3.9,2.75-6.58,2.75s-4.89-.92-6.59-2.75c-1.71-1.83-2.56-3.97-2.56-6.42s.81-4.53,2.42-6.32c1.78-1.97,4.02-2.95,6.73-2.95ZM557.13,118.14c-1.88,0-3.49.69-4.83,2.08s-2.02,3.06-2.02,5.03c0,1.27.31,2.45.92,3.54s1.44,1.94,2.49,2.54c1.05.6,2.19.89,3.44.89s2.4-.3,3.44-.89c1.05-.6,1.88-1.44,2.49-2.54s.92-2.28.92-3.54c0-1.97-.68-3.64-2.03-5.03-1.35-1.39-2.96-2.08-4.83-2.08Z"/><path class="cls-2" d="M570.11,109.62h2.26v24.3h-2.26v-24.3Z"/><path class="cls-2" d="M585.35,115.93c2.7,0,4.94.98,6.71,2.93,1.61,1.78,2.42,3.89,2.42,6.33s-.85,4.59-2.56,6.42c-1.71,1.83-3.9,2.75-6.58,2.75s-4.89-.92-6.59-2.75c-1.71-1.83-2.56-3.97-2.56-6.42s.81-4.53,2.42-6.32c1.78-1.97,4.02-2.95,6.73-2.95ZM585.34,118.14c-1.88,0-3.49.69-4.83,2.08s-2.02,3.06-2.02,5.03c0,1.27.31,2.45.92,3.54s1.44,1.94,2.49,2.54c1.05.6,2.19.89,3.44.89s2.4-.3,3.44-.89c1.05-.6,1.88-1.44,2.49-2.54s.92-2.28.92-3.54c0-1.97-.68-3.64-2.03-5.03-1.35-1.39-2.96-2.08-4.83-2.08Z"/><path class="cls-2" d="M613.78,116.38h2.26v13.97c0,2.46-.21,4.26-.64,5.4-.59,1.61-1.62,2.85-3.08,3.72-1.46.87-3.22,1.31-5.27,1.31-1.5,0-2.85-.21-4.05-.64-1.2-.43-2.17-1-2.92-1.71-.75-.72-1.45-1.76-2.08-3.14h2.45c.67,1.16,1.53,2.02,2.58,2.58s2.36.84,3.92.84,2.84-.29,3.9-.86c1.06-.57,1.82-1.29,2.27-2.16.45-.87.68-2.27.68-4.2v-.9c-.85,1.08-1.89,1.9-3.11,2.47-1.23.58-2.53.86-3.9.86-1.61,0-3.13-.4-4.55-1.2-1.42-.8-2.52-1.88-3.29-3.23s-1.16-2.84-1.16-4.46.4-3.13,1.21-4.54c.81-1.4,1.92-2.51,3.35-3.33s2.93-1.22,4.51-1.22c1.31,0,2.54.27,3.67.81,1.13.54,2.23,1.44,3.28,2.68v-3.04ZM607.12,118.11c-1.28,0-2.46.31-3.56.93-1.1.62-1.96,1.47-2.58,2.56-.62,1.09-.93,2.27-.93,3.54,0,1.92.64,3.51,1.93,4.77,1.29,1.26,2.96,1.88,5.01,1.88s3.74-.62,5-1.87c1.26-1.25,1.89-2.88,1.89-4.91,0-1.32-.29-2.5-.87-3.54-.58-1.04-1.4-1.86-2.47-2.46s-2.21-.9-3.43-.9Z"/><path class="cls-2" d="M618.98,116.38h2.38l6.02,13.5,5.85-13.5h2.4l-10.46,23.94h-2.38l3.38-7.74-7.2-16.2Z"/><path class="cls-2" d="M640.8,129.56l2.17,1.03-3.27,6.09-1.6-.68,2.69-6.45Z"/><path class="cls-2" d="M654.75,129.5l2.01-1.21c1.42,2.61,3.06,3.92,4.91,3.92.79,0,1.54-.19,2.24-.56.7-.37,1.23-.87,1.6-1.49.36-.62.55-1.28.55-1.98,0-.79-.27-1.57-.8-2.34-.74-1.05-2.1-2.32-4.06-3.8-1.98-1.49-3.21-2.57-3.69-3.24-.84-1.12-1.26-2.33-1.26-3.63,0-1.03.25-1.97.74-2.82s1.19-1.52,2.09-2.01c.9-.49,1.87-.73,2.92-.73,1.12,0,2.16.28,3.13.83.97.55,2,1.57,3.09,3.05l-1.93,1.47c-.89-1.18-1.65-1.96-2.28-2.34-.63-.38-1.31-.56-2.05-.56-.96,0-1.74.29-2.34.87-.61.58-.91,1.29-.91,2.14,0,.52.11,1.01.32,1.5s.61,1.01,1.18,1.58c.31.3,1.33,1.09,3.06,2.37,2.05,1.52,3.46,2.86,4.22,4.04s1.14,2.37,1.14,3.56c0,1.72-.65,3.21-1.96,4.48-1.3,1.27-2.89,1.9-4.76,1.9-1.44,0-2.75-.38-3.92-1.15-1.17-.77-2.25-2.05-3.24-3.86Z"/><path class="cls-2" d="M688.03,128.1l1.9,1c-.62,1.22-1.34,2.21-2.16,2.96-.82.75-1.74,1.32-2.76,1.72-1.02.39-2.18.59-3.47.59-2.86,0-5.1-.94-6.71-2.81-1.61-1.88-2.42-3.99-2.42-6.36,0-2.22.68-4.21,2.05-5.95,1.73-2.21,4.05-3.32,6.95-3.32s5.38,1.13,7.16,3.4c1.27,1.6,1.91,3.6,1.94,5.99h-15.77c.04,2.04.69,3.71,1.95,5.01,1.26,1.3,2.81,1.95,4.66,1.95.89,0,1.76-.16,2.61-.47.84-.31,1.56-.72,2.15-1.24s1.23-1.34,1.92-2.49ZM688.03,123.38c-.3-1.2-.74-2.16-1.32-2.88-.58-.72-1.34-1.3-2.28-1.74-.95-.44-1.94-.66-2.98-.66-1.72,0-3.2.55-4.44,1.66-.9.81-1.59,2.01-2.05,3.63h13.07Z"/><path class="cls-2" d="M695.5,109.16c.51,0,.95.18,1.32.55.36.37.55.81.55,1.32s-.18.94-.55,1.3c-.36.37-.8.55-1.32.55s-.94-.18-1.3-.55c-.36-.36-.54-.8-.54-1.3s.18-.96.54-1.32c.36-.37.8-.55,1.3-.55ZM694.38,116.38h2.26v17.53h-2.26v-17.53Z"/><path class="cls-2" d="M701.31,109.62h2.26v13.84l8.13-7.08h3.31l-9.63,8.36,10.2,9.17h-3.17l-8.83-7.89v7.89h-2.26v-24.3Z"/><path class="cls-2" d="M732.65,128.1l1.9,1c-.62,1.22-1.34,2.21-2.16,2.96-.82.75-1.74,1.32-2.76,1.72-1.02.39-2.18.59-3.47.59-2.86,0-5.1-.94-6.71-2.81-1.61-1.88-2.42-3.99-2.42-6.36,0-2.22.68-4.21,2.05-5.95,1.73-2.21,4.05-3.32,6.95-3.32s5.38,1.13,7.16,3.4c1.27,1.6,1.91,3.6,1.94,5.99h-15.77c.04,2.04.69,3.71,1.95,5.01,1.26,1.3,2.81,1.95,4.66,1.95.89,0,1.76-.16,2.61-.47.84-.31,1.56-.72,2.15-1.24s1.23-1.34,1.92-2.49ZM732.65,123.38c-.3-1.2-.74-2.16-1.32-2.88-.58-.72-1.34-1.3-2.28-1.74-.95-.44-1.94-.66-2.98-.66-1.72,0-3.2.55-4.44,1.66-.9.81-1.59,2.01-2.05,3.63h13.07Z"/><path class="cls-2" d="M740.11,109.16c.51,0,.95.18,1.32.55.36.37.55.81.55,1.32s-.18.94-.55,1.3c-.36.37-.8.55-1.32.55s-.94-.18-1.3-.55c-.36-.36-.54-.8-.54-1.3s.18-.96.54-1.32c.36-.37.8-.55,1.3-.55ZM738.99,116.38h2.26v17.53h-2.26v-17.53Z"/><path class="cls-2" d="M755.53,110.21h2.37v14.31c0,1.7.03,2.76.1,3.17.12.93.39,1.72.82,2.34.43.63,1.09,1.15,1.98,1.58.89.42,1.79.64,2.69.64.78,0,1.54-.17,2.26-.5s1.32-.79,1.8-1.39.84-1.3,1.06-2.14c.16-.6.24-1.84.24-3.71v-14.31h2.37v14.31c0,2.12-.21,3.83-.62,5.13-.41,1.3-1.24,2.44-2.48,3.41-1.24.97-2.74,1.45-4.5,1.45-1.91,0-3.55-.46-4.92-1.37s-2.28-2.12-2.74-3.62c-.29-.92-.44-2.59-.44-5v-14.31Z"/><path class="cls-2" d="M776.68,116.38h2.26v3.14c.9-1.2,1.9-2.1,3-2.7,1.1-.6,2.29-.89,3.58-.89s2.47.33,3.49,1c1.02.67,1.76,1.56,2.25,2.69.48,1.13.72,2.88.72,5.27v9.02h-2.26v-8.36c0-2.02-.08-3.37-.25-4.04-.26-1.16-.76-2.03-1.5-2.62-.74-.59-1.71-.88-2.9-.88-1.36,0-2.59.45-3.67,1.35-1.08.9-1.79,2.02-2.14,3.35-.21.87-.32,2.46-.32,4.77v6.43h-2.26v-17.53Z"/><path class="cls-2" d="M797.59,109.16c.51,0,.95.18,1.32.55.36.37.55.81.55,1.32s-.18.94-.55,1.3c-.36.37-.8.55-1.32.55s-.94-.18-1.3-.55c-.36-.36-.54-.8-.54-1.3s.18-.96.54-1.32c.36-.37.8-.55,1.3-.55ZM796.47,116.38h2.26v17.53h-2.26v-17.53Z"/><path class="cls-2" d="M801.75,116.38h2.4l5.88,12.78,5.81-12.78h2.42l-8.02,17.53h-.42l-8.07-17.53Z"/><path class="cls-2" d="M836.46,128.1l1.9,1c-.62,1.22-1.34,2.21-2.16,2.96-.82.75-1.74,1.32-2.76,1.72-1.02.39-2.18.59-3.47.59-2.86,0-5.1-.94-6.71-2.81-1.61-1.88-2.42-3.99-2.42-6.36,0-2.22.68-4.21,2.05-5.95,1.73-2.21,4.05-3.32,6.95-3.32s5.38,1.13,7.16,3.4c1.27,1.6,1.91,3.6,1.94,5.99h-15.77c.04,2.04.69,3.71,1.95,5.01,1.26,1.3,2.81,1.95,4.66,1.95.89,0,1.76-.16,2.61-.47.84-.31,1.56-.72,2.15-1.24s1.23-1.34,1.92-2.49ZM836.46,123.38c-.3-1.2-.74-2.16-1.32-2.88-.58-.72-1.34-1.3-2.28-1.74-.95-.44-1.94-.66-2.98-.66-1.72,0-3.2.55-4.44,1.66-.9.81-1.59,2.01-2.05,3.63h13.07Z"/><path class="cls-2" d="M842.29,116.38h2.3v2.56c.69-1.01,1.41-1.76,2.17-2.26.76-.5,1.56-.75,2.38-.75.62,0,1.29.2,2,.6l-1.18,1.9c-.47-.2-.87-.31-1.19-.31-.75,0-1.48.31-2.17.93-.7.62-1.23,1.58-1.6,2.88-.28,1-.42,3.02-.42,6.06v5.93h-2.3v-17.53Z"/><path class="cls-2" d="M861.89,118.3l-1.45,1.5c-1.21-1.17-2.39-1.76-3.54-1.76-.73,0-1.36.24-1.88.72s-.78,1.05-.78,1.69c0,.57.21,1.11.65,1.63.43.53,1.33,1.14,2.71,1.85,1.68.87,2.82,1.71,3.42,2.51.59.82.89,1.74.89,2.76,0,1.44-.51,2.66-1.52,3.66-1.01,1-2.28,1.5-3.79,1.5-1.01,0-1.98-.22-2.9-.66-.92-.44-1.68-1.05-2.28-1.82l1.42-1.61c1.15,1.3,2.38,1.95,3.67,1.95.9,0,1.67-.29,2.31-.87.63-.58.95-1.26.95-2.05,0-.64-.21-1.22-.63-1.72-.42-.49-1.37-1.12-2.84-1.87-1.58-.82-2.66-1.62-3.23-2.42-.57-.79-.86-1.7-.86-2.72,0-1.33.45-2.44,1.36-3.32.91-.88,2.06-1.32,3.45-1.32,1.61,0,3.24.79,4.88,2.37Z"/><path class="cls-2" d="M866.67,109.16c.51,0,.95.18,1.32.55.36.37.55.81.55,1.32s-.18.94-.55,1.3c-.36.37-.8.55-1.32.55s-.94-.18-1.3-.55c-.36-.36-.54-.8-.54-1.3s.18-.96.54-1.32c.36-.37.8-.55,1.3-.55ZM865.55,116.38h2.26v17.53h-2.26v-17.53Z"/><path class="cls-2" d="M874.46,109.87h2.26v6.51h3.58v1.95h-3.58v15.58h-2.26v-15.58h-3.08v-1.95h3.08v-6.51Z"/><path class="cls-2" d="M881.79,116.38h2.38l6.02,13.5,5.85-13.5h2.4l-10.46,23.94h-2.38l3.38-7.74-7.2-16.2Z"/></svg>