<?xml version="1.0" encoding="UTF-8"?><svg id="logo" xmlns="http://www.w3.org/2000/svg" viewBox="0 0 408.7 47.24"><defs><style>.cls-1{fill:#ff4500;}.cls-2{fill:#847769;}</style></defs><path d="M10.26,3.71c.27,2.72.72,4.81,1.21,6.48.92-1.26,1.62-2.7,2.21-4.25.13-.32.36-.45.61-.45.43,0,.92.41.92.9,0,.32-1.01,3.08-3.02,5.56.5,1.01,1.3,2.38,1.67,2.38.31,0,.52-.65.68-2.59.04-.45.31-.65.63-.65.47,0,1.03.41,1.03,1.03,0,.05-.02.11-.02.16-.4,2.79-1.13,4.21-2.14,4.21-.88,0-1.96-1.13-3.11-3.24-1.82,1.85-3.73,3.12-4.12,3.12-.47,0-.85-.56-.85-1.06,0-.25.09-.49.34-.63,1.57-.88,2.81-1.85,3.87-3.01-.77-2.18-1.31-4.66-1.66-7.96H2.75c-.18,0-.27.09-.27.27v1.75h3.71c.83,0,1.44.65,1.44,1.51,0,4.7-.29,6.54-2.59,6.54-1.26,0-1.87-.16-1.87-1.1,0-.43.2-.85.52-.85.05,0,.09,0,.14.02.5.16.88.25,1.17.25.94,0,.97-1.01.97-4.41,0-.27-.09-.4-.4-.4h-3.1v1.17c0,2.56-.09,5.1-.77,7.42-.13.43-.43.61-.76.61-.47,0-.95-.38-.95-.9,0-.09.02-.2.05-.29.68-2.14.74-4.65.74-7.44V3.38c0-.86.43-1.3,1.3-1.3h6.28c-.02-.36-.04-.74-.05-1.12v-.02c0-.41.41-.63.85-.63s.88.22.9.68c.02.38.04.74.05,1.08h2.94c-.11-.16-.22-.31-.32-.45-.14-.18-.2-.34-.2-.5,0-.38.4-.67.81-.67.25,0,.52.11.7.34.9,1.15,1.96,2.75,1.96,3.31,0,.49-.41.81-.83.81-.45,0-.56-.18-1.08-1.22h-3.83Z"/><path d="M21.01,6.91h-1.21c-.7,0-1.04-.34-1.04-1.04V1.87c0-.7.34-1.04,1.04-1.04h2.94c.7,0,1.04.34,1.04,1.04v4c0,.7-.34,1.04-1.04,1.04h-.18v2.2h.56c.5,0,.74.4.74.81s-.23.81-.74.81h-.56v2.93c1.12-.32,1.15-.32,1.21-.32.38,0,.56.32.56.68s-.2.81-.56.92c-1.22.38-4.39,1.24-4.81,1.24-.52,0-.83-.49-.83-.95,0-.38.2-.74.65-.81.04,0,.07-.02.11-.02v-5.82c0-.41.34-.63.68-.63s.68.22.68.63v5.56c.14-.04.59-.11.76-.13v-7.11ZM22.16,2.66c0-.14-.07-.22-.22-.22h-1.42c-.14,0-.22.07-.22.22v2.41c0,.14.07.22.22.22h1.42c.14,0,.22-.07.22-.22v-2.41ZM30.62,12.71c.72.9,1.85,1.78,3.28,2.2.34.11.49.34.49.61,0,.45-.4.95-.86.95-.23,0-3.15-.9-4.34-3.53-1.35,2.48-4.05,3.55-4.57,3.55s-.92-.49-.92-.94c0-.27.14-.5.52-.61,1.71-.52,2.66-1.19,3.31-2.23h-2.95c-.49,0-.74-.41-.74-.81s.25-.81.74-.81h3.64c.05-.18.11-.38.14-.58.09-.38.41-.54.76-.54.43,0,.88.27.88.76,0,.07-.04.29-.05.36h3.66c.5,0,.74.4.74.81s-.23.81-.74.81h-2.97ZM29.83,2.29c.61.86.61,1.17.61,1.21,0,.45-.49.83-.92.83-.23,0-.47-.11-.59-.4-.22-.49-.56-1.22-.76-1.57-.49.02-.9.02-1.24.02-.18,0-.31.07-.36.2-.85,1.89-1.28,2.38-1.73,2.38s-.92-.47-.92-.94c0-.16.05-.32.16-.47.45-.58.85-1.33,1.08-1.98.18-.49.59-.77,1.12-.79,1.98-.04,4.23-.05,6.43-.47.05-.02.09-.02.14-.02.5,0,.95.58.95,1.06,0,.29-.18.56-.61.61-.09.02-.18.02-.27.04,1.39,1.51,1.42,1.78,1.42,1.96,0,.45-.47.86-.92.86-.2,0-.4-.09-.54-.31-.49-.76-1.28-1.8-1.69-2.34-.47.04-.92.07-1.37.11ZM24.68,10.1c-.49,0-.76-.45-.76-.88,0-.38.22-.72.7-.72s1.3,0,2.25-.02c.18-.14.36-.31.54-.47-.68-.56-1.57-1.26-2.18-1.73-.2-.14-.27-.34-.27-.52,0-.43.4-.85.83-.85.14,0,.29.05.43.16s.29.23.43.34c.47-.54.79-.97,1.04-1.33.14-.2.34-.29.54-.29.41,0,.85.38.85.81,0,.23-.11.43-1.31,1.73.29.23.54.45.76.65,1.03-.97,1.98-1.96,2.59-2.67.14-.16.32-.23.5-.23.45,0,.92.45.92.88,0,.16-.05.31-.2.45-.79.81-2.16,2.05-3.38,2.97,1.01-.07,2.18-.13,3.02-.27-.2-.45-.22-.5-.22-.63,0-.41.43-.72.83-.72s.67.07,1.64,2.77c.04.09.05.18.05.27,0,.49-.45.85-.88.85-.25,0-.5-.14-.63-.45-.07-.2-.16-.43-.25-.65-2.34.4-6.59.5-7.8.54h-.05Z"/><path d="M45.38,6.32c.63,2.72,2.83,6.1,6.52,8.35.32.2.45.49.45.76,0,.52-.45,1.06-.94,1.06-.14,0-.27-.04-.4-.11-3.6-2.2-5.6-5.58-6.63-7.76-2.02,5.08-6.48,7.87-7.24,7.87-.49,0-.95-.52-.95-1.03,0-.27.14-.52.47-.7,4.05-2.11,5.98-5.69,6.52-8.44h-6.27c-.49,0-.74-.45-.74-.9s.25-.9.74-.9h6.45V1.01c0-.5.45-.74.9-.74s.9.23.9.74v3.51h6.46c.5,0,.74.45.74.9s-.23.9-.74.9h-6.25Z"/><path d="M65.18,12.14c.31.52.43,1.08.43,1.6,0,2.2-2.11,2.72-4.81,2.72-.95,0-2.29-.09-3.35-.45-.5-.18-.72-.52-.72-.86,0-.43.38-.86.92-.86.09,0,.2,0,.31.04,1.13.32,2.05.49,3.08.49,1.4,0,2.67-.18,2.75-1.1v-.16c0-.52-.22-.99-.5-1.4h-8.41c-.49,0-.74-.41-.74-.81s.25-.81.74-.81h6.46c-.05-.05-.09-.13-.09-.22,0-.31.4-.74.77-.9,1.12-.49,2.23-.92,2.92-1.31h-7.33c-.54,0-.81-.4-.81-.79s.27-.77.81-.77h8.52c.85,0,1.28.41,1.28.92,0,.38-.23.81-.72,1.13-1.04.7-2.21,1.24-3.28,1.82-.04.02-.05.07-.05.13h6.27c.5,0,.74.4.74.81s-.23.81-.74.81h-4.45ZM68.31,5.6c0-.18-.09-.27-.27-.27h-11.54c-.18,0-.27.09-.27.27v2c0,.4-.4.61-.81.61s-.81-.22-.81-.61v-2.59c0-.86.43-1.3,1.3-1.3h1.6c-.05-.05-.11-.13-.16-.22-.23-.41-.67-1.04-1.28-1.8-.14-.16-.2-.34-.2-.5,0-.47.5-.85.99-.85.23,0,.45.09.61.27.7.86,1.13,1.53,1.39,1.94.07.13.11.25.11.38,0,.31-.2.59-.47.77h3.53c-.09-.05-.18-.14-.27-.25-.27-.4-.7-1.06-1.33-1.84-.13-.16-.18-.31-.18-.47,0-.47.52-.86.99-.86.22,0,.41.07.58.25.86,1.04,1.51,2.02,1.51,2.34,0,.36-.27.68-.59.83h1.89c.54-.58,1.39-1.75,2.02-2.95.16-.31.41-.41.7-.41.5,0,1.06.41,1.06.94,0,.13-.04.25-.11.38-.4.72-.97,1.49-1.49,2.05h1.84c.86,0,1.3.43,1.3,1.3v2.56c0,.4-.4.61-.81.61s-.81-.22-.81-.61v-1.96Z"/><path d="M80.3,8.19h-1.28c-.49,0-.74-.41-.74-.85s.25-.83.74-.83h1.28v-3.69h-1.31c-.49,0-.74-.41-.74-.85s.25-.83.74-.83h4.32c.5,0,.74.41.74.83s-.23.85-.74.85h-1.35v3.69h1.17c.5,0,.74.41.74.83s-.23.85-.74.85h-1.17v4.29q1.57-.34,1.6-.34c.45,0,.7.38.7.77,0,.34-.18.72-.59.86-.77.27-2.3.68-4.63,1.04-.05,0-.11.02-.16.02-.56,0-.85-.49-.85-.97,0-.38.2-.76.63-.83.59-.09,1.13-.16,1.64-.25v-4.59ZM84.21,15.99c-.49,0-.74-.41-.74-.81s.25-.83.74-.83h3.87v-1.73h-3.21c-.49,0-.74-.41-.74-.83s.25-.81.74-.81h3.21v-1.4h-2.61c-.86,0-1.21-.43-1.21-1.3V2.05c0-.86.36-1.3,1.22-1.3h6.88c.86,0,1.3.43,1.3,1.3v6.23c0,.86-.43,1.3-1.3,1.3h-2.59v1.4h3.24c.5,0,.74.41.74.81s-.23.83-.74.83h-3.24v1.73h3.73c.5,0,.74.41.74.83s-.23.81-.74.81h-9.29ZM88.08,2.41h-1.89c-.18,0-.27.09-.27.27v1.64h2.16v-1.91ZM88.08,5.94h-2.16v1.71c0,.18.09.27.27.27h1.89v-1.98ZM92,2.68c0-.18-.09-.27-.27-.27h-1.96v1.91h2.23v-1.64ZM92,5.94h-2.23v1.98h1.96c.18,0,.27-.09.27-.27v-1.71Z"/><path d="M96.8,15.94c-.48,0-.73-.41-.73-.84s.25-.84.73-.84h6.11V3.19h-5.43c-.48,0-.73-.43-.73-.84s.25-.84.73-.84h12.77c.5,0,.73.41.73.84s-.23.84-.73.84h-5.43v11.08h6.09c.5,0,.73.41.73.84s-.23.84-.73.84h-14.1Z"/><path d="M124.34,11.98c.31.53.44,1.09.44,1.62,0,2.22-2.13,2.75-4.86,2.75-.96,0-2.31-.09-3.39-.46-.51-.18-.73-.53-.73-.87,0-.44.38-.87.93-.87.09,0,.2,0,.31.04,1.15.33,2.08.49,3.11.49,1.42,0,2.69-.18,2.79-1.11v-.16c0-.53-.22-1-.51-1.42h-8.5c-.49,0-.75-.42-.75-.82s.25-.82.75-.82h6.54c-.05-.05-.09-.13-.09-.22,0-.31.4-.75.78-.91,1.13-.49,2.26-.93,2.95-1.33h-7.41c-.55,0-.82-.4-.82-.8s.27-.78.82-.78h8.61c.86,0,1.29.42,1.29.93,0,.38-.24.82-.73,1.15-1.06.71-2.24,1.26-3.31,1.84-.04.02-.05.07-.05.13h6.33c.51,0,.75.4.75.82s-.24.82-.75.82h-4.5ZM127.5,5.37c0-.18-.09-.27-.27-.27h-11.67c-.18,0-.27.09-.27.27v2.02c0,.4-.4.62-.82.62s-.82-.22-.82-.62v-2.62c0-.87.44-1.31,1.31-1.31h1.62c-.05-.05-.11-.13-.16-.22-.24-.42-.67-1.06-1.29-1.82-.15-.16-.2-.35-.2-.51,0-.47.51-.86,1-.86.24,0,.46.09.62.27.71.87,1.15,1.55,1.4,1.97.07.13.11.25.11.38,0,.31-.2.6-.47.78h3.57c-.09-.05-.18-.15-.27-.25-.27-.4-.71-1.07-1.35-1.86-.13-.16-.18-.31-.18-.47,0-.47.53-.87,1-.87.22,0,.42.07.58.25.87,1.06,1.53,2.04,1.53,2.37,0,.36-.27.69-.6.84h1.91c.55-.58,1.4-1.77,2.04-2.99.16-.31.42-.42.71-.42.51,0,1.07.42,1.07.95,0,.13-.04.25-.11.38-.4.73-.98,1.51-1.51,2.08h1.86c.87,0,1.31.44,1.31,1.31v2.58c0,.4-.4.62-.82.62s-.82-.22-.82-.62v-1.98Z"/><path d="M131.96,7.87c-.49,0-.74-.41-.74-.81s.25-.81.74-.81h1.66l-.61-2.83h-.61c-.49,0-.74-.41-.74-.81s.25-.81.74-.81h3.02v-.77c0-.5.43-.74.85-.74s.85.23.85.74v.77h2.92c.5,0,.74.4.74.81s-.23.81-.74.81h-.63l-.63,2.83h1.76c.5,0,.74.4.74.81s-.23.81-.74.81h-8.57ZM133.51,15.81c-.86,0-1.3-.43-1.3-1.3v-4.25c0-.86.43-1.3,1.3-1.3h5.49c.86,0,1.31.43,1.31,1.3v4.25c0,.86-.43,1.3-1.3,1.3h-5.51ZM138.66,10.86c0-.18-.09-.27-.27-.27h-4.25c-.18,0-.27.09-.27.27v3.06c0,.18.09.27.27.27h4.25c.18,0,.27-.09.27-.27v-3.06ZM137.72,3.42h-3.06l.61,2.83h1.84l.61-2.83ZM141.67,1.89c0-.72.36-1.08,1.08-1.08h3.01c.79,0,1.22.43,1.22,1.21,0,.36-.09.77-.27,1.24l-1.3,3.4s-.02.04-.02.05c0,.07.04.16.07.2,1.31,1.62,1.87,3.28,1.87,4.65,0,1.78-.99,3.06-2.56,3.06-.18,0-.36-.02-.54-.05-.41-.07-.63-.49-.63-.88s.22-.76.68-.76c.04,0,.09.02.14.02s.13.02.18.02c.61,0,1.04-.59,1.04-1.55,0-1.03-.49-2.47-1.76-4.07-.11-.13-.14-.38-.14-.61,0-.11.02-.23.05-.32l1.37-3.8s.02-.05.02-.09-.02-.07-.07-.07h-1.66c-.07,0-.14.07-.14.14v13.16c0,.5-.41.74-.83.74s-.83-.23-.83-.74V1.89Z"/><path d="M157.34,8.19h-1.28c-.49,0-.74-.41-.74-.85s.25-.83.74-.83h1.28v-3.69h-1.31c-.49,0-.74-.41-.74-.85s.25-.83.74-.83h4.32c.5,0,.74.41.74.83s-.23.85-.74.85h-1.35v3.69h1.17c.5,0,.74.41.74.83s-.23.85-.74.85h-1.17v4.29q1.57-.34,1.6-.34c.45,0,.7.38.7.77,0,.34-.18.72-.59.86-.77.27-2.3.68-4.63,1.04-.05,0-.11.02-.16.02-.56,0-.85-.49-.85-.97,0-.38.2-.76.63-.83.59-.09,1.13-.16,1.64-.25v-4.59ZM161.25,15.99c-.49,0-.74-.41-.74-.81s.25-.83.74-.83h3.87v-1.73h-3.21c-.49,0-.74-.41-.74-.83s.25-.81.74-.81h3.21v-1.4h-2.61c-.86,0-1.21-.43-1.21-1.3V2.05c0-.86.36-1.3,1.22-1.3h6.88c.86,0,1.3.43,1.3,1.3v6.23c0,.86-.43,1.3-1.3,1.3h-2.59v1.4h3.24c.5,0,.74.41.74.81s-.23.83-.74.83h-3.24v1.73h3.73c.5,0,.74.41.74.83s-.23.81-.74.81h-9.29ZM165.12,2.41h-1.89c-.18,0-.27.09-.27.27v1.64h2.16v-1.91ZM165.12,5.94h-2.16v1.71c0,.18.09.27.27.27h1.89v-1.98ZM169.05,2.68c0-.18-.09-.27-.27-.27h-1.96v1.91h2.23v-1.64ZM169.05,5.94h-2.23v1.98h1.96c.18,0,.27-.09.27-.27v-1.71Z"/><path d="M173.84,15.94c-.48,0-.73-.41-.73-.84s.25-.84.73-.84h6.11V3.19h-5.43c-.48,0-.73-.43-.73-.84s.25-.84.73-.84h12.77c.5,0,.73.41.73.84s-.23.84-.73.84h-5.43v11.08h6.09c.5,0,.73.41.73.84s-.23.84-.73.84h-14.1Z"/><path d="M201.38,11.98c.31.53.44,1.09.44,1.62,0,2.22-2.13,2.75-4.86,2.75-.96,0-2.31-.09-3.39-.46-.51-.18-.73-.53-.73-.87,0-.44.38-.87.93-.87.09,0,.2,0,.31.04,1.15.33,2.08.49,3.11.49,1.42,0,2.69-.18,2.79-1.11v-.16c0-.53-.22-1-.51-1.42h-8.5c-.49,0-.75-.42-.75-.82s.25-.82.75-.82h6.54c-.05-.05-.09-.13-.09-.22,0-.31.4-.75.78-.91,1.13-.49,2.26-.93,2.95-1.33h-7.41c-.55,0-.82-.4-.82-.8s.27-.78.82-.78h8.61c.86,0,1.29.42,1.29.93,0,.38-.24.82-.73,1.15-1.06.71-2.24,1.26-3.31,1.84-.04.02-.05.07-.05.13h6.33c.51,0,.75.4.75.82s-.24.82-.75.82h-4.5ZM204.55,5.37c0-.18-.09-.27-.27-.27h-11.67c-.18,0-.27.09-.27.27v2.02c0,.4-.4.62-.82.62s-.82-.22-.82-.62v-2.62c0-.87.44-1.31,1.31-1.31h1.62c-.05-.05-.11-.13-.16-.22-.24-.42-.67-1.06-1.29-1.82-.15-.16-.2-.35-.2-.51,0-.47.51-.86,1-.86.24,0,.46.09.62.27.71.87,1.15,1.55,1.4,1.97.07.13.11.25.11.38,0,.31-.2.6-.47.78h3.57c-.09-.05-.18-.15-.27-.25-.27-.4-.71-1.07-1.35-1.86-.13-.16-.18-.31-.18-.47,0-.47.53-.87,1-.87.22,0,.42.07.58.25.87,1.06,1.53,2.04,1.53,2.37,0,.36-.27.69-.6.84h1.91c.55-.58,1.4-1.77,2.04-2.99.16-.31.42-.42.71-.42.51,0,1.07.42,1.07.95,0,.13-.04.25-.11.38-.4.73-.98,1.51-1.51,2.08h1.86c.87,0,1.31.44,1.31,1.31v2.58c0,.4-.4.62-.82.62s-.82-.22-.82-.62v-1.98Z"/><path d="M211,9.25c-1.3,3.26-1.46,3.29-1.84,3.29-.45,0-.9-.5-.9-.95,0-.14.04-.27.13-.4.99-1.33,1.94-3.06,2.61-4.75h-1.76c-.49,0-.74-.41-.74-.81s.25-.81.74-.81h1.76v-2.18c-.47.05-.96.11-1.44.16h-.09c-.47,0-.74-.4-.74-.79,0-.32.2-.65.61-.7,2.21-.29,3.82-.56,4.47-.79.07-.04.16-.04.23-.04.45,0,.77.47.77.9,0,.63-.36.7-2.12.99v2.45h1.46c.5,0,.74.4.74.81s-.23.81-.74.81h-1.46s1.39,1.66,2.21,2.72c.14.2.22.4.22.58,0,.49-.43.88-.83.88-.22,0-.41-.11-.56-.38-.25-.49-.67-1.26-1.04-1.87v7.38c0,.5-.41.74-.85.74s-.85-.23-.85-.74v-6.5ZM220.92,12.23l-5.96,1.17c-.05.02-.09.02-.14.02-.47,0-.76-.49-.76-.94,0-.36.18-.72.58-.79l6.28-1.22V1.08c0-.58.45-.85.92-.85s.9.27.9.85v9.04l.88-.18c.05-.02.11-.02.14-.02.47,0,.76.49.76.94,0,.36-.18.7-.58.77l-1.21.25v3.83c0,.56-.43.83-.88.83s-.94-.29-.94-.83v-3.49ZM218.67,9.76c-.94-.85-1.93-1.55-2.99-2.27-.31-.22-.43-.49-.43-.77,0-.5.43-.97.95-.97.18,0,.36.05.54.18,1.12.74,2.21,1.57,3.1,2.34.25.22.36.49.36.74,0,.52-.43,1.01-.92,1.01-.2,0-.41-.07-.61-.25ZM219.01,5.1c-.99-.85-2.03-1.66-2.99-2.27-.32-.2-.45-.47-.45-.76,0-.49.41-.95.95-.95.18,0,.38.05.56.18,1.17.77,2.21,1.57,3.1,2.34.25.22.36.49.36.74,0,.5-.41.97-.9.97-.2,0-.41-.07-.63-.25Z"/><path d="M234.06,8.61c-.47,2.34-.86,2.77-1.28,2.77-.38,0-.74-.43-.74-.94,0-.18.05-.36.16-.54.9-1.49,1.55-3.22,1.85-5.06h-1.21c-.36,0-.56-.38-.56-.77s.2-.76.56-.76h1.21V1.01c0-.5.4-.74.79-.74s.77.23.77.74v2.3h.85c.29,0,.42.36.42.74s-.14.79-.42.79h-.85s.74,1.03,1.31,1.93c.09-.07.22-.11.36-.11.22,0,.2-.02.45-.05.31-.31.59-.76.9-1.17-.56-.63-1.1-1.1-1.57-1.49-.16-.14-.23-.31-.23-.47,0-.34.32-.63.67-.63.13,0,.25.05.36.14.38-.54.74-1.28,1.06-2.03.13-.29.34-.41.58-.41.34,0,.72.31.72.7,0,.36-1.04,2.05-1.46,2.67.16.18.42.36.56.5.36-.52.7-1.1.92-1.48.16-.29.4-.4.61-.4.32,0,.63.29.63.63,0,.11-.02.23-.09.34-.43.72-1.48,2.2-2.12,2.95.38-.05.92-.11,1.24-.16-.02-.09-.05-.23-.07-.32-.02-.05-.02-.11-.02-.16,0-.31.27-.54.54-.54.41,0,.52.38.94,2.21.02.05.02.11.02.16,0,.36-.31.58-.61.58-.22,0-.41-.13-.45-.41l-.05-.32c-1.06.18-2.09.34-3.35.47-.04.41-.45.72-.81.72-.23,0-.43-.13-.52-.43-.16-.58-.32-1.19-.5-1.66v9.17c0,.5-.4.74-.77.74-.4,0-.79-.23-.79-.74v-7.15ZM248.32,13.11c-.14,2.41-.92,3.4-1.84,3.4-.63,0-1.53-.49-2.47-2.09-.79.65-2.65,2.12-3.21,2.12-.4,0-.67-.4-.67-.81,0-.29.14-.61.49-.77,1.04-.5,1.94-1.08,2.75-1.8-.36-.92-.67-2.05-.88-3.19h-2.23c-.04.43-.09.81-.2,1.08,2.02,1.15,2.11,1.58,2.11,1.84,0,.49-.47.97-.88.97-.14,0-.29-.07-.4-.22-.29-.4-.81-.97-1.21-1.24-1.39,3.1-2.04,3.39-2.43,3.39-.43,0-.81-.34-.81-.76,0-.18.07-.36.22-.54.86-1.01,1.85-2.79,2.12-4.52h-1.31c-.49,0-.72-.36-.72-.72s.23-.7.72-.7h4.77c-.29-2.14-.45-4.72-.61-7.51v-.07c0-.45.38-.7.76-.7s.74.23.76.7c.02.72.05,1.4.09,2.07.13-.13.29-.2.47-.2.11,0,.23.04.34.13.29-.5.65-1.26.9-1.94.11-.31.36-.45.59-.45.34,0,.7.27.7.67,0,.34-.68,1.62-1.3,2.61.2.18.5.36.68.52.36-.56.68-1.1.88-1.48.11-.22.31-.32.52-.32.32,0,.65.23.65.58,0,.52-1.89,3.02-2.11,3.29.43-.05.99-.11,1.35-.16-.02-.16-.05-.31-.09-.43-.02-.07-.02-.13-.02-.18,0-.34.23-.54.49-.54.54,0,.67.72.95,2.41,0,.04.02.07.02.11,0,.38-.34.58-.65.58-.23,0-.45-.13-.47-.4,0-.14-.02-.31-.05-.45-.25.05-.65.11-.92.14.2.27.41.68.59,1.03h.79c.5,0,.74.36.74.7,0,.36-.23.72-.74.72h-3.49c.16.7.34,1.49.54,2.09.5-.49.97-1.1,1.3-1.62.16-.25.36-.36.56-.36.4,0,.77.41.77.85,0,.58-1.57,2.07-2,2.47.4.76.85,1.42,1.1,1.42s.49-.45.56-1.85c.02-.45.36-.68.7-.68.36,0,.7.25.7.76v.07ZM243.3,3.96c.07.94.14,1.84.23,2.66.13-.07.34-.04.58-.07.25-.32.56-.74.85-1.15-.43-.41-1.19-1.06-1.66-1.44ZM245.46,8.55c-.14-.29-.36-.68-.49-.85-.22.02-.41.05-.59.07-.16.02-.32.02-.45.04-.09,0-.16,0-.23-.04.02.22.05.58.09.77h1.67Z"/><path d="M256.71,5.02c-1.37.23-2.95.49-5.6.61h-.04c-.52,0-.9-.58-.9-1.06,0-.36.22-.67.72-.67h.36c.65-1.13,1.22-2.54,1.46-3.13.13-.32.47-.49.81-.49.47,0,.94.27.94.72,0,.38-.97,2.18-1.33,2.83,1.12-.05,2.02-.14,2.77-.27-.16-.29-.32-.56-.43-.74-.07-.13-.11-.27-.11-.4,0-.43.43-.77.86-.77.23,0,.45.09.61.32.45.67,1.13,1.75,1.71,2.77.07.13.11.25.11.38,0,.49-.5.9-.97.9-.25,0-.49-.13-.65-.41l-.32-.59ZM256.33,13.41h-3.91v2.47c0,.41-.4.61-.81.61s-.81-.2-.81-.61V7.42c0-.7.34-1.04,1.04-1.04h5.04c.7,0,1.1.34,1.1,1.04v7.06c0,1.44-.45,2.02-1.76,2.02-1.62,0-2.04-.34-2.04-.99,0-.4.25-.77.68-.77.05,0,.09.02.13.02.32.05.58.07.76.07.49,0,.58-.18.58-.7v-.7ZM256.33,8.21c0-.14-.07-.22-.22-.22h-3.47c-.14,0-.22.07-.22.22v.99h3.91v-.99ZM256.33,10.68h-3.91v1.26h3.91v-1.26ZM261.17,16.11c-1.51,0-2.03-.68-2.03-1.93v-5.58c0-.47.43-.7.85-.7s.86.23.86.7v1.91c1.73-.65,2.75-1.21,3.64-1.76.09-.05.18-.07.27-.07.45,0,.95.49.95.94,0,.2-.09.4-.32.54-1.13.7-2.43,1.39-4.54,2.12v1.22c0,.76.18.92.9.92h1.24c1.08,0,1.31-.31,1.6-2.11.07-.45.38-.65.72-.65.47,0,.97.38.97.97,0,.05,0,.11-.02.16-.38,2.45-1.19,3.31-2.75,3.31h-2.34ZM261.21,7.53c-1.51,0-2.03-.68-2.03-1.93V.9c0-.4.41-.59.83-.59s.83.2.83.59v1.85c1.57-.54,2.84-1.26,3.51-1.67.09-.05.2-.09.29-.09.43,0,.88.41.88.85,0,.2-.11.4-.38.56-.72.43-2.36,1.35-4.3,2.03v.56c0,.76.25.92,1.04.92h.97c1.24,0,1.53-.25,1.78-1.64.07-.45.38-.65.72-.65.45,0,.94.38.94.95,0,.05,0,.13-.02.18-.36,2.21-1.42,2.77-2.72,2.77h-2.34Z"/><path d="M268.51,9.02c-.41,0-.86-.36-.86-.79,0-.04,0-.07.02-.13.32-1.35.47-3.17.49-4.09,0-.43.34-.65.68-.65.32,0,.67.22.67.67-.02.9-.09,2.84-.43,4.48-.07.36-.31.5-.56.5ZM273.25,16.01c-.5,0-.74-.4-.74-.79,0-.43.27-.86.74-.86h4.38v-4.41h-3.3c-.49,0-.74-.41-.74-.83s.25-.83.74-.83h3.3v-3.64h-2.25c-.72,3.02-1.28,3.04-1.55,3.04-.49,0-1.03-.49-1.03-.99,0-.13.04-.25.11-.38.05-.11.11-.2.16-.31-.14.13-.32.2-.49.2-.22,0-.41-.13-.47-.38-.16-.65-.36-1.39-.5-1.89v11.85c0,.47-.41.7-.85.7s-.85-.23-.85-.7V.99c0-.47.41-.7.85-.7s.85.23.85.7v2.07c.11-.13.25-.2.4-.2.22,0,.43.13.54.43.25.65.58,1.57.72,2.3.5-1.15.76-2.48.92-4.23.04-.41.36-.59.7-.59.47,0,.97.32.97.85v.05c-.04.45-.09.9-.14,1.31h1.91v-1.93c0-.5.45-.74.9-.74s.88.23.88.74v1.93h3.26c.5,0,.74.41.74.83s-.23.83-.74.83h-3.26v3.64h2.92c.5,0,.74.41.74.83s-.23.83-.74.83h-2.92v4.41h3.73c.47,0,.74.43.74.86,0,.4-.23.79-.74.79h-9.88Z"/><path d="M286.22,8.39c-.52,0-1.01-.52-1.01-1.04,0-.25.13-.5.4-.68,1.67-1.08,3.44-3.21,4.36-5.91.11-.32.41-.47.74-.47.5,0,1.06.32,1.06.81,0,.32-1.53,4.54-5.08,7.13-.14.11-.31.16-.47.16ZM297.1,8.75c0-.09-.09-.16-.18-.16h-4.16c-.02,2.34-.65,6.05-5.42,7.81-.13.05-.25.07-.38.07-.56,0-.94-.5-.94-.99,0-.34.18-.67.59-.81,3.87-1.37,4.38-3.83,4.41-6.09h-2.3c-.49,0-.74-.43-.74-.86s.25-.86.74-.86h9.09c.72,0,1.08.5,1.08,1.12v2.83c0,3.89-.2,5.42-3.15,5.42-.65,0-1.42-.07-2.36-.22-.41-.05-.63-.47-.63-.86,0-.45.27-.9.83-.9.04,0,.09.02.14.02.9.13,1.55.22,2.03.22,1.22,0,1.33-.61,1.33-2.99v-2.74ZM299.94,8.19c-4.2-3.06-5.2-6.79-5.2-7.08,0-.49.5-.79.99-.79.32,0,.63.13.76.45.99,2.63,2.95,4.84,4.56,5.92.25.18.36.41.36.67,0,.49-.45,1.01-.95,1.01-.16,0-.34-.05-.5-.18Z"/><path d="M313.64,9.25c.38.88.68,1.93.72,3.15v.13c0,2.68-1.78,3.96-4.95,3.96h-.13c-.83-.02-2.61-.32-3.65-.74-.63-.25-.86-.65-.86-1.04,0-.54.45-1.04.99-1.04.13,0,.23.02.36.07,1.39.61,2.21.79,3.42.85h.31c1.73,0,2.5-.7,2.5-1.94,0-.09-.02-.18-.02-.29-.11-1.35-.43-2.34-.83-3.1h-7.94c-.52,0-.79-.47-.79-.94s.27-.94.79-.94h6.81c-.47-.76-.47-.94-.47-1.28,0-.5.25-.95.85-1.22,1.01-.45,2.47-1.17,3.6-2.03.04-.02.05-.07.05-.11,0-.05-.05-.13-.11-.13h-9.17c-.59,0-.9-.47-.9-.92s.29-.88.9-.88h10.44c.92,0,1.55.68,1.55,1.44,0,.83-.74,1.73-4.75,3.78-.14.07-.2.2-.2.31s.05.23.11.32c.14.23.29.47.43.72h5.44c.56,0,.85.47.85.92,0,.49-.29.95-.85.95h-4.5Z"/><path d="M326.06,12h-3.55c-.05,1.33-.2,2.62-.6,3.97-.13.44-.38.6-.67.6-.46,0-.93-.42-.93-.95,0-.09.02-.2.05-.29.58-1.67.62-3.08.62-5.42v-4.62c-.31-.16-.56-.55-.56-.91,0-.18.07-.38.22-.53,1.07-1.13,1.77-2.51,2.06-3.2.13-.29.47-.44.82-.44.46,0,.91.24.91.67,0,.13-.04.25-.11.4-.04.07-.07.15-.11.24h1.89c.62,0,.87.33.87.75,0,.2-.05.6-.93,1.8h.53c.71,0,1.06.35,1.06,1.06v9.68c0,1.27-.49,1.77-1.69,1.77-.4,0-.87-.05-1.42-.15-.51-.09-.73-.47-.73-.87s.25-.84.71-.84c.04,0,.09.02.13.02.42.07.73.11.96.11.35,0,.47-.11.47-.42v-2.42ZM323.58,5.66h-.86c-.15,0-.22.07-.22.22v1.35h1.07v-1.57ZM323.58,8.74h-1.07v1.66h1.07v-1.66ZM323.49,2.79c-.24.4-.51.82-.86,1.27h1.6c.53-.69.84-1.27.84-1.27h-1.58ZM326.1,5.88c0-.15-.07-.22-.22-.22h-.91v1.57h1.13v-1.35ZM326.1,8.74h-1.13v1.66h1.13v-1.66ZM332.89,10.72v3.26c.6-.11,1.13-.24,1.57-.36-.15-.35-.29-.69-.46-1.04-.05-.11-.07-.2-.07-.29,0-.44.42-.75.82-.75.24,0,.46.11.6.38,1.02,2.09,1.38,3.46,1.38,3.8,0,.53-.49.86-.93.86-.31,0-.58-.16-.66-.53-.05-.33-.13-.62-.2-.93-1.53.49-4.19.93-6.37,1.07h-.05c-.55,0-.87-.51-.87-.98,0-.38.22-.73.67-.75.98-.05,1.98-.15,2.93-.25v-3.5h-2c-.71,0-1.06-.35-1.06-1.06V3.28c0-.71.35-1.06,1.06-1.06h2V.95c0-.51.42-.75.82-.75s.82.24.82.75v1.27h2.08c.71,0,1.06.35,1.06,1.06v6.39c0,.71-.35,1.06-1.06,1.06h-2.08ZM331.25,3.86h-1.2c-.15,0-.22.07-.22.22v4.79c0,.15.07.22.22.22h1.2V3.86ZM334.38,4.08c0-.15-.07-.22-.22-.22h-1.27v5.22h1.27c.15,0,.22-.07.22-.22v-4.79Z"/><path d="M343.18,3.41c.72,0,1.08.36,1.08,1.08,0,3.26-.49,5.67-1.26,7.56,1.24,1.17,1.35,1.37,1.35,1.71,0,.5-.43.95-.86.95-.18,0-.36-.09-.52-.27-.2-.23-.43-.5-.72-.81-.68,1.19-1.48,2.12-2.32,2.94-.14.14-.32.22-.49.22-.47,0-.92-.49-.92-.97,0-.18.07-.38.23-.52.86-.79,1.67-1.69,2.32-2.84-.56-.52-1.15-1.06-1.73-1.51-.29-.23-.45-.5-.45-.85,0-.09,0-.16.02-.25.29-1.46.59-2.97.81-4.81h-.61c-.36,0-.56-.41-.56-.81s.2-.81.56-.81h.76c.02-.11.11-1.06.11-2.09.02-.49.41-.74.81-.74s.79.25.79.74v.04c-.04.74-.07,1.4-.13,2.05h1.73ZM341.33,5.03c-.22,2-.5,3.48-.77,4.54,0,.04-.02.07-.02.09,0,.07.04.14.09.2.38.32.77.68,1.17,1.04.56-1.51.9-3.37.9-5.73,0-.14-.04-.14-.16-.14h-1.21ZM350.94,11.28c.81,1.1,2.11,2.23,3.39,3.08.29.18.4.41.4.67,0,.5-.5,1.01-.97,1.01-.59,0-2.5-1.98-3.67-3.87v3.89c0,.5-.4.74-.81.74s-.81-.23-.81-.74v-3.89c-1.01,1.69-2.93,3.85-3.66,3.85-.47,0-.95-.5-.95-1.01,0-.23.11-.47.38-.65,1.31-.85,2.58-1.93,3.37-3.08h-2.9c-.49,0-.74-.4-.74-.79s.25-.77.74-.77h3.76v-1.15h-2c-.86,0-1.22-.36-1.22-1.22V3.18h-.59c-.49,0-.74-.4-.74-.79s.25-.77.74-.77h.59v-.32c0-.47.41-.7.81-.7.42,0,.81.23.81.7v.32h5.01v-.34c0-.45.41-.68.81-.68.42,0,.81.23.81.68v.34h.5c.5,0,.74.4.74.77s-.23.79-.74.79h-.5v4.16c0,.86-.36,1.22-1.22,1.22h-2.18v1.15h3.87c.5,0,.74.4.74.77,0,.4-.23.79-.74.79h-3.01ZM351.86,3.18h-5.01v1.12h5.01v-1.12ZM351.86,5.75h-5.01v.95c0,.18.09.27.27.27h4.46c.18,0,.27-.09.27-.27v-.95Z"/><path d="M358.8,15.93c-.7,0-1.04-.34-1.04-1.04v-5.6c-.16.14-.32.2-.47.2-.43,0-.79-.49-.79-.95,0-.14.04-.31.13-.43.45-.67,1.48-2.29,2.11-5.46h-1.24c-.49,0-.74-.41-.74-.81s.25-.81.74-.81h4.83c.5,0,.74.4.74.81s-.23.81-.74.81h-1.91c-.25,1.24-.56,2.34-.9,3.28h1.96c.7,0,1.04.34,1.04,1.04v7.92c0,.7-.34,1.04-1.04,1.04h-2.67ZM360.96,7.75c0-.14-.07-.22-.22-.22h-1.24c-.14,0-.22.07-.22.22v6.36c0,.14.07.22.22.22h1.24c.14,0,.22-.07.22-.22v-6.36ZM369.52,8.78h-3.06c-.05,2.97-.41,5.28-2.14,7.45-.18.23-.41.32-.67.32-.52,0-1.08-.45-1.08-.97,0-.18.07-.36.22-.54,1.53-1.82,1.87-3.6,1.93-6.27h-1.19c-.49,0-.74-.41-.74-.83s.25-.83.74-.83h1.21V2.62h-.86c-.49,0-.74-.41-.74-.81s.25-.81.74-.81h7.89c.5,0,.74.4.74.81s-.23.81-.74.81h-.5v4.5h.74c.5,0,.74.41.74.83s-.23.83-.74.83h-.74v7.04c0,.5-.43.74-.86.74s-.86-.23-.86-.74v-7.04ZM369.52,2.62h-3.04v4.5h3.04V2.62Z"/><path d="M375.58,7.87c-.05,0-.09.02-.14.02-.54,0-.92-.54-.92-1.01,0-.36.2-.68.68-.74,2.77-.34,3.91-.97,4.79-2.2.18-.23.43-.34.7-.34.45,0,.92.29.92.7,0,.13-.05.25-.14.4-1.22,1.8-2.84,2.65-5.89,3.17ZM387.46,16.22c-1.22,0-1.89-.45-1.89-2.14v-3.82c0-.09-.05-.2-.14-.2h-3.66c-.9,3.62-2.72,5.15-5.94,6.36-.14.05-.29.09-.42.09-.54,0-.88-.49-.88-.95,0-.36.18-.7.59-.85,2.74-.99,4.12-2.12,4.84-4.65h-4.11c-.49,0-.74-.41-.74-.85s.25-.83.74-.83h4.45c.07-.47.13-.97.18-1.53.04-.45.45-.67.86-.67.45,0,.92.27.92.77v.07c-.05.47-.11.92-.18,1.35h3.82c.95,0,1.39.63,1.39,1.62v3.83c0,.49.13.68.52.68h.2c.67,0,.85-.18.99-2.39.04-.49.34-.68.68-.68.47,0,1.03.4,1.03.99v.13c-.43,3.4-.95,3.65-2.59,3.65h-.67ZM385.48,7.47c-1.48,0-2.09-.68-2.09-1.94v-1.21c0-.5.43-.74.86-.74s.86.23.86.74v1.04c0,.45.16.59.54.59h2.38c.59,0,.74-.16.94-.85.04-.13.09-.23.16-.31-.27-.05-.5-.2-.5-.41v-.88c0-.2-.07-.22-.22-.22h-11.59c-.14,0-.22.07-.22.22v1.3c0,.41-.41.61-.83.61s-.83-.2-.83-.61v-2.12c0-.7.34-1.04,1.04-1.04h5.6v-.7c0-.43.47-.65.94-.65s.94.22.94.65v.7h5.76c.7,0,1.04.34,1.04,1.04v1.71c0,.13-.07.23-.2.31.36.16.65.49.65.86,0,.07-.02.16-.05.25-.49,1.26-.92,1.66-2.58,1.66h-2.61Z"/><path d="M393.27,16.02c-.49,0-.74-.4-.74-.81s.25-.81.74-.81h6.54v-1.96h-5.65c-.49,0-.74-.41-.74-.81s.25-.81.74-.81h5.65v-1.69c-2.3.11-5.38.18-5.8.18-.54,0-.83-.47-.83-.92,0-.4.25-.77.74-.77.56,0,1.1.02,1.64.02.65-.7,1.12-1.3,1.44-1.84h-2.21c-.49,0-.72-.4-.72-.77,0-.05,0-.13.02-.18-.11.04-.22.05-.32.05-.41,0-.81-.2-.81-.61v-1.53c0-.86.43-1.3,1.3-1.3h5.31v-.43c0-.5.5-.74,1.01-.74s1.01.23,1.01.74v.43h5.42c.86,0,1.3.43,1.3,1.3v1.51c0,.41-.41.61-.81.61-.09,0-.2-.02-.29-.04.02.05.02.13.02.18,0,.38-.23.77-.72.77h-1.4c2.59,2.11,2.97,2.45,2.97,2.88,0,.49-.47.95-.95.95-.2,0-.4-.07-.56-.25-.18-.2-.38-.4-.56-.58-.88.07-2.54.16-4.56.25v1.76h5.71c.5,0,.74.4.74.81s-.23.81-.74.81h-5.71v1.96h6.54c.5,0,.74.4.74.81s-.23.81-.74.81h-14.69ZM406.67,3.26c0-.18-.2-.27-.38-.27h-11.45c-.18,0-.27.09-.27.27v1.04c.07-.02.14-.04.22-.04h11.7c.07,0,.13,0,.18.02v-1.03ZM398.98,5.8c-.23.43-.79,1.12-1.33,1.82,2.95-.02,5.64-.11,6.95-.16-.27-.27-.52-.49-.7-.65s-.25-.34-.25-.5c0-.18.09-.36.22-.5h-4.88Z"/><path class="cls-1" d="M.19,23.33h4.63v1.73H1.96v1.69h2.87v1.71H1.96v4.2H.19v-9.34Z"/><path class="cls-1" d="M6.21,25.76h1.75v3.33c0,.65.04,1.1.13,1.35.09.25.23.45.43.59s.44.21.73.21.53-.07.74-.21c.2-.14.35-.34.45-.61.07-.2.11-.62.11-1.28v-3.38h1.73v2.93c0,1.21-.1,2.03-.29,2.48-.23.54-.58.96-1.03,1.25-.45.29-1.03.43-1.73.43-.76,0-1.37-.17-1.84-.51-.47-.34-.8-.81-.99-1.42-.14-.42-.2-1.18-.2-2.29v-2.88Z"/><path class="cls-1" d="M14.02,25.76h1.73v.71c.39-.33.75-.56,1.07-.69.32-.13.65-.19.98-.19.68,0,1.27.24,1.74.72.4.41.6,1.01.6,1.8v4.56h-1.71v-3.02c0-.82-.04-1.37-.11-1.64s-.2-.48-.39-.62-.41-.21-.68-.21c-.35,0-.65.12-.9.35-.25.23-.43.56-.52.97-.05.22-.08.68-.08,1.4v2.77h-1.73v-6.91Z"/><path class="cls-1" d="M28.58,27.16l-1.44.79c-.27-.28-.54-.48-.8-.59-.26-.11-.58-.17-.93-.17-.65,0-1.17.19-1.57.58-.4.39-.6.88-.6,1.49s.19,1.07.58,1.44c.39.37.89.56,1.52.56.78,0,1.38-.26,1.81-.79l1.37.94c-.74.96-1.79,1.45-3.14,1.45-1.21,0-2.17-.36-2.85-1.08-.69-.72-1.03-1.56-1.03-2.53,0-.67.17-1.28.5-1.85.33-.56.8-1,1.4-1.33.6-.32,1.27-.48,2.01-.48.69,0,1.3.14,1.85.41.55.27.99.66,1.34,1.17Z"/><path class="cls-1" d="M30.35,23.22h1.73v2.55h1.03v1.49h-1.03v5.42h-1.73v-5.42h-.89v-1.49h.89v-2.55Z"/><path class="cls-1" d="M35.1,22.92c.3,0,.56.11.78.33s.33.49.33.8-.11.57-.32.79c-.22.22-.47.33-.77.33s-.57-.11-.79-.33c-.22-.22-.33-.49-.33-.81s.11-.56.32-.78.47-.32.78-.32ZM34.24,25.76h1.73v6.91h-1.73v-6.91Z"/><path class="cls-1" d="M40.79,25.59c.65,0,1.26.16,1.84.49.57.33,1.02.77,1.34,1.33s.48,1.16.48,1.81-.16,1.26-.49,1.83c-.32.57-.77,1.01-1.32,1.33s-1.17.48-1.85.48c-.99,0-1.84-.35-2.54-1.06-.7-.71-1.05-1.56-1.05-2.57,0-1.08.4-1.98,1.19-2.7.69-.63,1.49-.94,2.39-.94ZM40.82,27.22c-.54,0-.99.19-1.35.56-.36.37-.54.85-.54,1.44s.18,1.09.53,1.46c.35.37.8.56,1.34.56s.99-.19,1.35-.57c.36-.38.54-.86.54-1.45s-.18-1.07-.53-1.44c-.35-.37-.81-.56-1.36-.56Z"/><path class="cls-1" d="M45.87,25.76h1.73v.71c.39-.33.75-.56,1.07-.69.32-.13.65-.19.98-.19.68,0,1.27.24,1.74.72.4.41.6,1.01.6,1.8v4.56h-1.71v-3.02c0-.82-.04-1.37-.11-1.64s-.2-.48-.39-.62-.41-.21-.68-.21c-.35,0-.65.12-.9.35-.25.23-.43.56-.52.97-.05.22-.08.68-.08,1.4v2.77h-1.73v-6.91Z"/><path class="cls-1" d="M58.76,25.76h1.73v6.91h-1.73v-.73c-.34.32-.68.55-1.02.7s-.71.21-1.11.21c-.89,0-1.66-.35-2.31-1.04-.65-.69-.98-1.55-.98-2.58s.31-1.94.94-2.62c.63-.68,1.39-1.02,2.29-1.02.41,0,.8.08,1.17.23.36.16.7.39,1.01.71v-.76ZM56.94,27.19c-.54,0-.98.19-1.33.57-.35.38-.53.86-.53,1.46s.18,1.09.54,1.47c.36.39.8.58,1.33.58s1-.19,1.35-.57.54-.88.54-1.49-.18-1.09-.54-1.46c-.36-.37-.81-.56-1.36-.56Z"/><path class="cls-1" d="M62.06,23.1h1.73v9.57h-1.73v-9.57Z"/><path class="cls-1" d="M68.99,25.76h1.73v.79c.3-.33.63-.57.99-.73.36-.16.76-.24,1.18-.24s.82.11,1.17.32c.35.21.63.52.84.93.28-.41.61-.72,1.01-.93.4-.21.84-.32,1.31-.32s.92.11,1.3.34c.37.23.64.53.8.89s.24.97.24,1.8v4.05h-1.75v-3.5c0-.78-.1-1.31-.29-1.59-.19-.28-.49-.42-.88-.42-.3,0-.56.08-.8.25-.23.17-.41.4-.52.7-.11.3-.17.78-.17,1.44v3.12h-1.75v-3.35c0-.62-.05-1.07-.14-1.34-.09-.28-.23-.48-.41-.62-.18-.14-.4-.2-.66-.2-.29,0-.55.09-.79.26-.24.17-.41.41-.53.72-.12.31-.17.79-.17,1.46v3.07h-1.73v-6.91Z"/><path class="cls-1" d="M84.47,25.59c.65,0,1.26.16,1.84.49.57.33,1.02.77,1.34,1.33s.48,1.16.48,1.81-.16,1.26-.49,1.83c-.32.57-.77,1.01-1.32,1.33s-1.17.48-1.85.48c-.99,0-1.84-.35-2.54-1.06-.7-.71-1.05-1.56-1.05-2.57,0-1.08.4-1.98,1.19-2.7.69-.63,1.49-.94,2.39-.94ZM84.49,27.22c-.54,0-.99.19-1.35.56-.36.37-.54.85-.54,1.44s.18,1.09.53,1.46c.35.37.8.56,1.34.56s.99-.19,1.35-.57c.36-.38.54-.86.54-1.45s-.18-1.07-.53-1.44c-.35-.37-.81-.56-1.36-.56Z"/><path class="cls-1" d="M89.35,23.1h1.73v9.57h-1.73v-9.57Z"/><path class="cls-1" d="M99.58,29.72h-5.57c.08.49.3.88.64,1.17.35.29.79.43,1.34.43.65,0,1.2-.23,1.67-.68l1.46.69c-.36.52-.8.9-1.31,1.15-.51.25-1.11.37-1.81.37-1.08,0-1.97-.34-2.65-1.03s-1.02-1.54-1.02-2.57.34-1.93,1.02-2.62c.68-.7,1.53-1.04,2.55-1.04,1.09,0,1.97.35,2.65,1.04s1.02,1.62,1.02,2.76v.33ZM97.85,28.35c-.11-.39-.34-.7-.68-.94s-.73-.36-1.17-.36c-.48,0-.91.14-1.27.41-.23.17-.44.47-.64.9h3.76Z"/><path class="cls-1" d="M107.74,27.16l-1.44.79c-.27-.28-.54-.48-.8-.59-.26-.11-.58-.17-.93-.17-.65,0-1.17.19-1.57.58-.4.39-.6.88-.6,1.49s.19,1.07.58,1.44c.39.37.89.56,1.52.56.78,0,1.38-.26,1.81-.79l1.37.94c-.74.96-1.79,1.45-3.14,1.45-1.21,0-2.17-.36-2.85-1.08-.69-.72-1.03-1.56-1.03-2.53,0-.67.17-1.28.5-1.85.33-.56.8-1,1.4-1.33.6-.32,1.27-.48,2.01-.48.69,0,1.3.14,1.85.41.55.27.99.66,1.34,1.17Z"/><path class="cls-1" d="M109.3,25.76h1.75v3.33c0,.65.04,1.1.13,1.35.09.25.23.45.43.59s.44.21.73.21.53-.07.74-.21c.2-.14.35-.34.45-.61.07-.2.11-.62.11-1.28v-3.38h1.73v2.93c0,1.21-.1,2.03-.29,2.48-.23.54-.58.96-1.03,1.25-.45.29-1.03.43-1.73.43-.76,0-1.37-.17-1.84-.51-.47-.34-.8-.81-.99-1.42-.14-.42-.2-1.18-.2-2.29v-2.88Z"/><path class="cls-1" d="M117.04,23.1h1.73v9.57h-1.73v-9.57Z"/><path class="cls-1" d="M125.58,25.76h1.73v6.91h-1.73v-.73c-.34.32-.68.55-1.02.7s-.71.21-1.11.21c-.89,0-1.66-.35-2.31-1.04-.65-.69-.98-1.55-.98-2.58s.31-1.94.94-2.62c.63-.68,1.39-1.02,2.29-1.02.41,0,.8.08,1.17.23.36.16.7.39,1.01.71v-.76ZM123.76,27.19c-.54,0-.98.19-1.33.57-.35.38-.53.86-.53,1.46s.18,1.09.54,1.47c.36.39.8.58,1.33.58s1-.19,1.35-.57.54-.88.54-1.49-.18-1.09-.54-1.46c-.36-.37-.81-.56-1.36-.56Z"/><path class="cls-1" d="M128.98,25.76h1.49v.87c.16-.34.37-.6.64-.78s.56-.27.88-.27c.22,0,.46.06.7.18l-.54,1.49c-.2-.1-.37-.15-.5-.15-.27,0-.49.17-.68.5-.18.33-.28.98-.28,1.94v.34s0,2.79,0,2.79h-1.72v-6.91Z"/><path class="cls-1" d="M143.94,27.16l-1.44.79c-.27-.28-.54-.48-.8-.59-.26-.11-.58-.17-.93-.17-.65,0-1.17.19-1.57.58-.4.39-.6.88-.6,1.49s.19,1.07.58,1.44c.39.37.89.56,1.52.56.78,0,1.38-.26,1.81-.79l1.37.94c-.74.96-1.79,1.45-3.14,1.45-1.21,0-2.17-.36-2.85-1.08-.69-.72-1.03-1.56-1.03-2.53,0-.67.17-1.28.5-1.85.33-.56.8-1,1.4-1.33.6-.32,1.27-.48,2.01-.48.69,0,1.3.14,1.85.41.55.27.99.66,1.34,1.17Z"/><path class="cls-1" d="M150.6,25.76h1.73v6.91h-1.73v-.73c-.34.32-.68.55-1.02.7s-.71.21-1.11.21c-.89,0-1.66-.35-2.31-1.04-.65-.69-.98-1.55-.98-2.58s.31-1.94.94-2.62c.63-.68,1.39-1.02,2.29-1.02.41,0,.8.08,1.17.23.36.16.7.39,1.01.71v-.76ZM148.78,27.19c-.54,0-.98.19-1.33.57-.35.38-.53.86-.53,1.46s.18,1.09.54,1.47c.36.39.8.58,1.33.58s1-.19,1.35-.57.54-.88.54-1.49-.18-1.09-.54-1.46c-.36-.37-.81-.56-1.36-.56Z"/><path class="cls-1" d="M154.62,23.22h1.73v2.55h1.03v1.49h-1.03v5.42h-1.73v-5.42h-.89v-1.49h.89v-2.55Z"/><path class="cls-1" d="M163.73,25.76h1.73v6.91h-1.73v-.73c-.34.32-.68.55-1.02.7s-.71.21-1.11.21c-.89,0-1.66-.35-2.31-1.04-.65-.69-.98-1.55-.98-2.58s.31-1.94.94-2.62c.63-.68,1.39-1.02,2.29-1.02.41,0,.8.08,1.17.23.36.16.7.39,1.01.71v-.76ZM161.91,27.19c-.54,0-.98.19-1.33.57-.35.38-.53.86-.53,1.46s.18,1.09.54,1.47c.36.39.8.58,1.33.58s1-.19,1.35-.57.54-.88.54-1.49-.18-1.09-.54-1.46c-.36-.37-.81-.56-1.36-.56Z"/><path class="cls-1" d="M167.35,23.1h1.73v9.57h-1.73v-9.57Z"/><path class="cls-1" d="M169.89,25.76h1.77l1.79,4.33,1.98-4.33h1.78l-4.33,9.43h-1.79l1.42-3.04-2.62-6.39Z"/><path class="cls-1" d="M182.43,26.73l-1.07,1.07c-.44-.43-.83-.65-1.19-.65-.19,0-.35.04-.46.12-.11.08-.17.19-.17.31,0,.09.04.18.1.26.07.08.24.18.52.32l.63.32c.67.33,1.13.67,1.38,1.01s.37.75.37,1.21c0,.61-.23,1.13-.68,1.54-.45.41-1.06.62-1.81.62-1.01,0-1.81-.39-2.41-1.18l1.07-1.16c.2.24.44.43.71.58.27.15.52.22.73.22.23,0,.41-.06.55-.17.14-.11.21-.24.21-.38,0-.27-.25-.53-.76-.78l-.58-.29c-1.12-.56-1.68-1.27-1.68-2.11,0-.55.21-1.01.63-1.4.42-.39.96-.58,1.62-.58.45,0,.87.1,1.27.29.4.2.73.48,1.01.85Z"/><path class="cls-1" d="M184.45,23.22h1.73v2.55h1.03v1.49h-1.03v5.42h-1.73v-5.42h-.89v-1.49h.89v-2.55Z"/><path class="cls-1" d="M191.59,23.1h1.73v9.57h-1.73v-9.57Z"/><path class="cls-1" d="M199.99,25.76h1.73v6.91h-1.73v-.73c-.34.32-.68.55-1.02.7s-.71.21-1.11.21c-.89,0-1.66-.35-2.31-1.04-.65-.69-.98-1.55-.98-2.58s.31-1.94.94-2.62c.63-.68,1.39-1.02,2.29-1.02.41,0,.8.08,1.17.23.36.16.7.39,1.01.71v-.76ZM198.17,27.19c-.54,0-.98.19-1.33.57-.35.38-.53.86-.53,1.46s.18,1.09.54,1.47c.36.39.8.58,1.33.58s1-.19,1.35-.57.54-.88.54-1.49-.18-1.09-.54-1.46c-.36-.37-.81-.56-1.36-.56Z"/><path class="cls-1" d="M205.33,23.1v3.43c.31-.31.65-.55,1.02-.71.36-.16.75-.23,1.17-.23.9,0,1.67.34,2.3,1.02.63.68.95,1.56.95,2.62s-.33,1.89-.98,2.58c-.65.69-1.42,1.04-2.32,1.04-.4,0-.77-.07-1.11-.21s-.68-.37-1.02-.7v.73h-1.72v-9.57h1.72ZM207.15,27.19c-.55,0-1,.19-1.36.56-.36.37-.54.86-.54,1.46s.18,1.11.54,1.49.81.57,1.36.57.97-.19,1.34-.58c.36-.38.54-.88.54-1.47s-.18-1.08-.53-1.46c-.36-.38-.8-.57-1.35-.57Z"/><path class="cls-2" d="M.06,44.95v-7.9h1.64c1.18,0,2.04.09,2.57.29.77.27,1.37.73,1.8,1.4.43.66.65,1.45.65,2.37,0,.79-.17,1.49-.51,2.09-.34.6-.79,1.04-1.33,1.33-.55.29-1.31.43-2.3.43H.06ZM.82,44.21h.91c1.09,0,1.85-.07,2.27-.2.59-.19,1.06-.54,1.4-1.04.34-.5.51-1.12.51-1.84s-.18-1.41-.55-1.95c-.37-.54-.88-.91-1.54-1.11-.49-.15-1.31-.23-2.44-.23h-.56v6.38Z"/><path class="cls-2" d="M13.04,43.01l.63.33c-.21.41-.45.74-.72.99-.27.25-.58.44-.92.57-.34.13-.73.2-1.16.2-.95,0-1.7-.31-2.24-.94s-.81-1.33-.81-2.12c0-.74.23-1.4.68-1.98.58-.74,1.35-1.11,2.32-1.11s1.79.38,2.39,1.13c.42.53.64,1.2.65,2h-5.26c.01.68.23,1.24.65,1.67.42.43.94.65,1.55.65.3,0,.59-.05.87-.16s.52-.24.72-.41c.2-.17.41-.45.64-.83ZM13.04,41.44c-.1-.4-.25-.72-.44-.96-.19-.24-.45-.43-.76-.58-.32-.15-.65-.22-1-.22-.57,0-1.07.18-1.48.55-.3.27-.53.67-.68,1.21h4.36Z"/><path class="cls-2" d="M15.28,39.11h.75v1.07c.3-.41.64-.71,1.02-.92s.82-.31,1.29-.31c.83,0,1.54.3,2.13.9.59.6.89,1.32.89,2.16s-.29,1.59-.88,2.19c-.58.6-1.29.9-2.12.9-.46,0-.89-.1-1.28-.29-.39-.19-.74-.48-1.06-.87v3.14h-.75v-7.98ZM18.29,39.68c-.65,0-1.2.23-1.64.68s-.67,1.02-.67,1.7c0,.44.1.84.3,1.2.2.35.48.63.85.84.37.21.76.31,1.17.31s.78-.1,1.14-.31.64-.5.85-.88c.21-.38.32-.77.32-1.18s-.1-.81-.31-1.18c-.21-.37-.49-.66-.84-.87-.35-.21-.74-.31-1.16-.31Z"/><path class="cls-2" d="M28.6,39.11v5.84h-.74v-1c-.31.38-.67.67-1.06.87-.39.19-.82.29-1.29.29-.83,0-1.53-.3-2.12-.9-.59-.6-.88-1.33-.88-2.19s.3-1.56.89-2.16c.59-.6,1.3-.9,2.13-.9.48,0,.91.1,1.3.31.39.2.73.51,1.02.92v-1.07h.74ZM25.59,39.68c-.42,0-.81.1-1.16.31-.35.21-.64.5-.84.87-.21.37-.31.77-.31,1.18s.11.8.32,1.18c.21.38.49.67.85.88.36.21.74.31,1.15.31s.8-.1,1.17-.31c.37-.21.65-.49.85-.84.2-.35.3-.75.3-1.2,0-.68-.22-1.24-.67-1.7s-.99-.68-1.64-.68Z"/><path class="cls-2" d="M30.28,39.11h.77v.85c.23-.34.47-.59.73-.75.25-.17.52-.25.79-.25.21,0,.43.07.67.2l-.39.63c-.16-.07-.29-.1-.4-.1-.25,0-.49.1-.73.31s-.41.53-.53.96c-.09.33-.14,1.01-.14,2.02v1.98h-.77v-5.84Z"/><path class="cls-2" d="M34.53,36.94h.75v2.17h1.19v.65h-1.19v5.19h-.75v-5.19h-1.03v-.65h1.03v-2.17Z"/><path class="cls-2" d="M37.6,39.11h.75v1.01c.26-.37.53-.64.81-.82.38-.23.78-.34,1.2-.34.28,0,.55.06.81.17.25.11.46.26.62.44s.3.45.42.79c.25-.46.56-.81.94-1.04.38-.24.78-.36,1.21-.36.4,0,.76.1,1.07.31s.54.49.69.85.23.91.23,1.64v3.19h-.77v-3.19c0-.63-.04-1.06-.13-1.29s-.24-.42-.46-.57c-.22-.14-.47-.21-.77-.21-.36,0-.7.11-1,.32-.3.21-.52.5-.66.86-.14.36-.21.96-.21,1.79v2.29h-.75v-2.99c0-.71-.04-1.18-.13-1.44-.09-.25-.24-.46-.46-.61-.22-.15-.48-.23-.78-.23-.35,0-.67.1-.97.31-.3.21-.53.49-.67.85-.14.35-.22.9-.22,1.63v2.48h-.75v-5.84Z"/><path class="cls-2" d="M52.84,43.01l.63.33c-.21.41-.45.74-.72.99-.27.25-.58.44-.92.57-.34.13-.73.2-1.16.2-.95,0-1.7-.31-2.24-.94s-.81-1.33-.81-2.12c0-.74.23-1.4.68-1.98.58-.74,1.35-1.11,2.32-1.11s1.79.38,2.39,1.13c.42.53.64,1.2.65,2h-5.26c.01.68.23,1.24.65,1.67.42.43.94.65,1.55.65.3,0,.59-.05.87-.16s.52-.24.72-.41c.2-.17.41-.45.64-.83ZM52.84,41.44c-.1-.4-.25-.72-.44-.96-.19-.24-.45-.43-.76-.58-.32-.15-.65-.22-1-.22-.57,0-1.07.18-1.48.55-.3.27-.53.67-.68,1.21h4.36Z"/><path class="cls-2" d="M55.07,39.11h.75v1.05c.3-.4.63-.7,1-.9.37-.2.76-.3,1.19-.3s.82.11,1.16.33c.34.22.59.52.75.9s.24.96.24,1.76v3.01h-.75v-2.79c0-.67-.03-1.12-.08-1.35-.09-.39-.25-.68-.5-.87s-.57-.29-.97-.29c-.46,0-.86.15-1.22.45-.36.3-.6.67-.71,1.12-.07.29-.11.82-.11,1.59v2.14h-.75v-5.84Z"/><path class="cls-2" d="M62.43,36.94h.75v2.17h1.19v.65h-1.19v5.19h-.75v-5.19h-1.03v-.65h1.03v-2.17Z"/><path class="cls-2" d="M71.31,38.96c.9,0,1.65.33,2.24.98.54.59.81,1.3.81,2.11s-.28,1.53-.85,2.14c-.57.61-1.3.92-2.19.92s-1.63-.31-2.2-.92c-.57-.61-.85-1.32-.85-2.14s.27-1.51.81-2.11c.59-.66,1.34-.98,2.24-.98ZM71.31,39.69c-.63,0-1.16.23-1.61.69s-.67,1.02-.67,1.68c0,.42.1.82.31,1.18.21.37.48.65.83.85.35.2.73.3,1.15.3s.8-.1,1.15-.3c.35-.2.62-.48.83-.85.2-.37.31-.76.31-1.18,0-.66-.23-1.21-.68-1.68-.45-.46-.99-.69-1.61-.69Z"/><path class="cls-2" d="M78.16,36.85v.74c-.28-.12-.51-.18-.71-.18-.15,0-.27.03-.37.09-.1.06-.16.13-.18.2-.02.08-.04.28-.04.61v.79s1.22,0,1.22,0v.65h-1.22v5.19h-.76v-5.19h-.77v-.65h.77v-.91c0-.42.04-.72.12-.9.08-.18.21-.32.39-.43.18-.11.41-.16.67-.16.24,0,.54.05.88.15Z"/><path class="cls-2" d="M85.19,39.75l-.48.5c-.4-.39-.8-.59-1.18-.59-.24,0-.45.08-.63.24-.17.16-.26.35-.26.56,0,.19.07.37.22.54.14.17.44.38.9.62.56.29.94.57,1.14.84.2.27.3.58.3.92,0,.48-.17.89-.51,1.22-.34.33-.76.5-1.26.5-.34,0-.66-.07-.97-.22-.31-.15-.56-.35-.76-.61l.47-.54c.38.43.79.65,1.22.65.3,0,.56-.1.77-.29.21-.19.32-.42.32-.68,0-.21-.07-.41-.21-.58-.14-.16-.46-.37-.95-.62-.53-.27-.89-.54-1.08-.81-.19-.26-.29-.57-.29-.91,0-.44.15-.81.45-1.11.3-.29.69-.44,1.15-.44.54,0,1.08.26,1.62.79Z"/><path class="cls-2" d="M92.3,40.32l-.6.37c-.52-.68-1.22-1.03-2.11-1.03-.71,0-1.3.23-1.77.69s-.71,1.01-.71,1.67c0,.42.11.83.32,1.2.22.38.51.67.89.88.38.21.8.31,1.27.31.86,0,1.56-.34,2.1-1.03l.6.39c-.28.42-.65.75-1.12.98-.47.23-1.01.35-1.61.35-.92,0-1.69-.29-2.3-.88-.61-.59-.91-1.3-.91-2.14,0-.57.14-1.09.43-1.58.28-.49.68-.86,1.17-1.14.5-.27,1.05-.41,1.67-.41.39,0,.76.06,1.12.18.36.12.67.27.92.46.25.19.46.43.64.73Z"/><path class="cls-2" d="M94.12,36.7c.17,0,.32.06.44.18.12.12.18.27.18.44s-.06.31-.18.43c-.12.12-.27.18-.44.18s-.31-.06-.43-.18c-.12-.12-.18-.27-.18-.43s.06-.32.18-.44c.12-.12.27-.18.43-.18ZM93.74,39.11h.75v5.84h-.75v-5.84Z"/><path class="cls-2" d="M101.09,43.01l.63.33c-.21.41-.45.74-.72.99-.27.25-.58.44-.92.57-.34.13-.73.2-1.16.2-.95,0-1.7-.31-2.24-.94s-.81-1.33-.81-2.12c0-.74.23-1.4.68-1.98.58-.74,1.35-1.11,2.32-1.11s1.79.38,2.39,1.13c.42.53.64,1.2.65,2h-5.26c.01.68.23,1.24.65,1.67.42.43.94.65,1.55.65.3,0,.59-.05.87-.16s.52-.24.72-.41c.2-.17.41-.45.64-.83ZM101.09,41.44c-.1-.4-.25-.72-.44-.96-.19-.24-.45-.43-.76-.58-.32-.15-.65-.22-1-.22-.57,0-1.07.18-1.48.55-.3.27-.53.67-.68,1.21h4.36Z"/><path class="cls-2" d="M103.43,39.11h.75v1.05c.3-.4.63-.7,1-.9.37-.2.76-.3,1.19-.3s.82.11,1.16.33c.34.22.59.52.75.9s.24.96.24,1.76v3.01h-.75v-2.79c0-.67-.03-1.12-.08-1.35-.09-.39-.25-.68-.5-.87s-.57-.29-.97-.29c-.46,0-.86.15-1.22.45-.36.3-.6.67-.71,1.12-.07.29-.11.82-.11,1.59v2.14h-.75v-5.84Z"/><path class="cls-2" d="M115.81,40.32l-.6.37c-.52-.68-1.22-1.03-2.11-1.03-.71,0-1.3.23-1.77.69s-.71,1.01-.71,1.67c0,.42.11.83.32,1.2.22.38.51.67.89.88.38.21.8.31,1.27.31.86,0,1.56-.34,2.1-1.03l.6.39c-.28.42-.65.75-1.12.98-.47.23-1.01.35-1.61.35-.92,0-1.69-.29-2.3-.88-.61-.59-.91-1.3-.91-2.14,0-.57.14-1.09.43-1.58.28-.49.68-.86,1.17-1.14.5-.27,1.05-.41,1.67-.41.39,0,.76.06,1.12.18.36.12.67.27.92.46.25.19.46.43.64.73Z"/><path class="cls-2" d="M122.17,43.01l.63.33c-.21.41-.45.74-.72.99-.27.25-.58.44-.92.57-.34.13-.73.2-1.16.2-.95,0-1.7-.31-2.24-.94s-.81-1.33-.81-2.12c0-.74.23-1.4.68-1.98.58-.74,1.35-1.11,2.32-1.11s1.79.38,2.39,1.13c.42.53.64,1.2.65,2h-5.26c.01.68.23,1.24.65,1.67.42.43.94.65,1.55.65.3,0,.59-.05.87-.16s.52-.24.72-.41c.2-.17.41-.45.64-.83ZM122.17,41.44c-.1-.4-.25-.72-.44-.96-.19-.24-.45-.43-.76-.58-.32-.15-.65-.22-1-.22-.57,0-1.07.18-1.48.55-.3.27-.53.67-.68,1.21h4.36Z"/><path class="cls-2" d="M133.27,39.11v5.84h-.74v-1c-.31.38-.67.67-1.06.87-.39.19-.82.29-1.29.29-.83,0-1.53-.3-2.12-.9-.59-.6-.88-1.33-.88-2.19s.3-1.56.89-2.16c.59-.6,1.3-.9,2.13-.9.48,0,.91.1,1.3.31.39.2.73.51,1.02.92v-1.07h.74ZM130.27,39.68c-.42,0-.81.1-1.16.31-.35.21-.64.5-.84.87-.21.37-.31.77-.31,1.18s.11.8.32,1.18c.21.38.49.67.85.88.36.21.74.31,1.15.31s.8-.1,1.17-.31c.37-.21.65-.49.85-.84.2-.35.3-.75.3-1.2,0-.68-.22-1.24-.67-1.7s-.99-.68-1.64-.68Z"/><path class="cls-2" d="M134.96,39.11h.75v1.05c.3-.4.63-.7,1-.9.37-.2.76-.3,1.19-.3s.82.11,1.16.33c.34.22.59.52.75.9s.24.96.24,1.76v3.01h-.75v-2.79c0-.67-.03-1.12-.08-1.35-.09-.39-.25-.68-.5-.87s-.57-.29-.97-.29c-.46,0-.86.15-1.22.45-.36.3-.6.67-.71,1.12-.07.29-.11.82-.11,1.59v2.14h-.75v-5.84Z"/><path class="cls-2" d="M147.5,36.85v8.1h-.74v-1c-.31.38-.67.67-1.06.87-.39.19-.82.29-1.29.29-.83,0-1.53-.3-2.12-.9-.59-.6-.88-1.33-.88-2.19s.3-1.56.89-2.16c.59-.6,1.3-.9,2.13-.9.48,0,.91.1,1.3.31.39.2.73.51,1.02.92v-3.33h.74ZM144.5,39.68c-.42,0-.81.1-1.16.31-.35.21-.64.5-.84.87-.21.37-.31.77-.31,1.18s.11.8.32,1.18c.21.38.49.67.85.88.36.21.74.31,1.15.31s.8-.1,1.17-.31c.37-.21.65-.49.85-.84.2-.35.3-.75.3-1.2,0-.68-.22-1.24-.67-1.7s-.99-.68-1.64-.68Z"/><path class="cls-2" d="M152.91,36.94h.75v2.17h1.19v.65h-1.19v5.19h-.75v-5.19h-1.03v-.65h1.03v-2.17Z"/><path class="cls-2" d="M160.9,43.01l.63.33c-.21.41-.45.74-.72.99-.27.25-.58.44-.92.57-.34.13-.73.2-1.16.2-.95,0-1.7-.31-2.24-.94s-.81-1.33-.81-2.12c0-.74.23-1.4.68-1.98.58-.74,1.35-1.11,2.32-1.11s1.79.38,2.39,1.13c.42.53.64,1.2.65,2h-5.26c.01.68.23,1.24.65,1.67.42.43.94.65,1.55.65.3,0,.59-.05.87-.16s.52-.24.72-.41c.2-.17.41-.45.64-.83ZM160.9,41.44c-.1-.4-.25-.72-.44-.96-.19-.24-.45-.43-.76-.58-.32-.15-.65-.22-1-.22-.57,0-1.07.18-1.48.55-.3.27-.53.67-.68,1.21h4.36Z"/><path class="cls-2" d="M168.8,40.32l-.6.37c-.52-.68-1.22-1.03-2.11-1.03-.71,0-1.3.23-1.77.69s-.71,1.01-.71,1.67c0,.42.11.83.32,1.2.22.38.51.67.89.88.38.21.8.31,1.27.31.86,0,1.56-.34,2.1-1.03l.6.39c-.28.42-.65.75-1.12.98-.47.23-1.01.35-1.61.35-.92,0-1.69-.29-2.3-.88-.61-.59-.91-1.3-.91-2.14,0-.57.14-1.09.43-1.58.28-.49.68-.86,1.17-1.14.5-.27,1.05-.41,1.67-.41.39,0,.76.06,1.12.18.36.12.67.27.92.46.25.19.46.43.64.73Z"/><path class="cls-2" d="M170.24,36.85h.75v3.3c.3-.4.64-.7,1-.9.37-.2.76-.3,1.19-.3s.82.11,1.16.33c.34.22.59.52.75.89.16.37.24.96.24,1.76v3.01h-.75v-2.79c0-.67-.03-1.12-.08-1.35-.09-.39-.26-.68-.51-.87-.25-.2-.57-.29-.96-.29-.45,0-.86.15-1.22.45-.36.3-.6.67-.71,1.12-.07.29-.11.82-.11,1.59v2.14h-.75v-8.1Z"/><path class="cls-2" d="M176.95,39.11h.75v1.05c.3-.4.63-.7,1-.9.37-.2.76-.3,1.19-.3s.82.11,1.16.33c.34.22.59.52.75.9s.24.96.24,1.76v3.01h-.75v-2.79c0-.67-.03-1.12-.08-1.35-.09-.39-.25-.68-.5-.87s-.57-.29-.97-.29c-.46,0-.86.15-1.22.45-.36.3-.6.67-.71,1.12-.07.29-.11.82-.11,1.59v2.14h-.75v-5.84Z"/><path class="cls-2" d="M186.43,38.96c.9,0,1.65.33,2.24.98.54.59.81,1.3.81,2.11s-.28,1.53-.85,2.14c-.57.61-1.3.92-2.19.92s-1.63-.31-2.2-.92c-.57-.61-.85-1.32-.85-2.14s.27-1.51.81-2.11c.59-.66,1.34-.98,2.24-.98ZM186.43,39.69c-.63,0-1.16.23-1.61.69s-.67,1.02-.67,1.68c0,.42.1.82.31,1.18.21.37.48.65.83.85.35.2.73.3,1.15.3s.8-.1,1.15-.3c.35-.2.62-.48.83-.85.2-.37.31-.76.31-1.18,0-.66-.23-1.21-.68-1.68-.45-.46-.99-.69-1.61-.69Z"/><path class="cls-2" d="M190.75,36.85h.75v8.1h-.75v-8.1Z"/><path class="cls-2" d="M195.83,38.96c.9,0,1.65.33,2.24.98.54.59.81,1.3.81,2.11s-.28,1.53-.85,2.14c-.57.61-1.3.92-2.19.92s-1.63-.31-2.2-.92c-.57-.61-.85-1.32-.85-2.14s.27-1.51.81-2.11c.59-.66,1.34-.98,2.24-.98ZM195.83,39.69c-.63,0-1.16.23-1.61.69s-.67,1.02-.67,1.68c0,.42.1.82.31,1.18.21.37.48.65.83.85.35.2.73.3,1.15.3s.8-.1,1.15-.3c.35-.2.62-.48.83-.85.2-.37.31-.76.31-1.18,0-.66-.23-1.21-.68-1.68-.45-.46-.99-.69-1.61-.69Z"/><path class="cls-2" d="M205.31,39.11h.75v4.66c0,.82-.07,1.42-.21,1.8-.2.54-.54.95-1.03,1.24s-1.07.44-1.76.44c-.5,0-.95-.07-1.35-.21-.4-.14-.72-.33-.98-.57-.25-.24-.48-.59-.69-1.05h.82c.22.39.51.67.86.86.35.19.79.28,1.31.28s.95-.1,1.3-.29c.35-.19.6-.43.76-.72.15-.29.23-.76.23-1.4v-.3c-.28.36-.63.63-1.04.83-.41.19-.84.29-1.3.29-.54,0-1.04-.13-1.52-.4s-.84-.63-1.1-1.08c-.26-.45-.39-.95-.39-1.49s.13-1.04.4-1.51c.27-.47.64-.84,1.12-1.11.47-.27.98-.41,1.5-.41.44,0,.85.09,1.22.27.38.18.74.48,1.09.89v-1.01ZM203.09,39.68c-.43,0-.82.1-1.19.31-.37.21-.65.49-.86.85s-.31.76-.31,1.18c0,.64.21,1.17.64,1.59s.99.63,1.67.63,1.25-.21,1.67-.62c.42-.42.63-.96.63-1.64,0-.44-.1-.83-.29-1.18s-.47-.62-.82-.82c-.35-.2-.74-.3-1.14-.3Z"/><path class="cls-2" d="M207.04,39.11h.79l2.01,4.5,1.95-4.5h.8l-3.49,7.98h-.79l1.12-2.58-2.4-5.4Z"/><path class="cls-2" d="M214.31,43.5l.72.34-1.09,2.03-.53-.23.9-2.15Z"/><path class="cls-2" d="M218.97,43.48l.67-.4c.47.87,1.02,1.31,1.64,1.31.26,0,.51-.06.75-.19.23-.12.41-.29.53-.5.12-.21.18-.43.18-.66,0-.27-.09-.52-.27-.78-.25-.35-.7-.77-1.35-1.27-.66-.5-1.07-.86-1.23-1.08-.28-.37-.42-.78-.42-1.21,0-.34.08-.66.25-.94.17-.28.4-.51.7-.67.3-.16.62-.24.98-.24.37,0,.72.09,1.04.28.32.18.67.52,1.03,1.02l-.64.49c-.3-.39-.55-.65-.76-.78-.21-.12-.44-.19-.68-.19-.32,0-.58.1-.78.29s-.3.43-.3.71c0,.17.04.34.11.5.07.16.2.34.39.53.1.1.44.36,1.02.79.68.5,1.15.95,1.41,1.35.25.39.38.79.38,1.19,0,.57-.22,1.07-.65,1.49-.44.42-.96.63-1.59.63-.48,0-.92-.13-1.31-.38-.39-.26-.75-.68-1.08-1.29Z"/><path class="cls-2" d="M230.06,43.01l.63.33c-.21.41-.45.74-.72.99-.27.25-.58.44-.92.57s-.73.2-1.16.2c-.95,0-1.7-.31-2.24-.94-.54-.62-.81-1.33-.81-2.12,0-.74.23-1.4.68-1.98.58-.74,1.35-1.11,2.32-1.11s1.79.38,2.39,1.13c.42.53.64,1.2.64,2h-5.26c.01.68.23,1.24.65,1.67.42.43.94.65,1.55.65.3,0,.59-.05.87-.16s.52-.24.72-.41c.2-.17.41-.45.64-.83ZM230.06,41.44c-.1-.4-.25-.72-.44-.96-.19-.24-.45-.43-.76-.58-.32-.15-.65-.22-1-.22-.57,0-1.07.18-1.48.55-.3.27-.53.67-.68,1.21h4.36Z"/><path class="cls-2" d="M232.82,36.7c.17,0,.32.06.44.18s.18.27.18.44-.06.31-.18.43-.27.18-.44.18-.31-.06-.43-.18c-.12-.12-.18-.27-.18-.43s.06-.32.18-.44c.12-.12.27-.18.43-.18ZM232.45,39.11h.75v5.84h-.75v-5.84Z"/><path class="cls-2" d="M235.03,36.85h.75v4.61l2.71-2.36h1.1l-3.21,2.79,3.4,3.06h-1.06l-2.94-2.63v2.63h-.75v-8.1Z"/><path class="cls-2" d="M245.48,43.01l.63.33c-.21.41-.45.74-.72.99-.27.25-.58.44-.92.57s-.73.2-1.16.2c-.95,0-1.7-.31-2.24-.94-.54-.62-.81-1.33-.81-2.12,0-.74.23-1.4.68-1.98.58-.74,1.35-1.11,2.32-1.11s1.79.38,2.39,1.13c.42.53.64,1.2.64,2h-5.26c.01.68.23,1.24.65,1.67.42.43.94.65,1.55.65.3,0,.59-.05.87-.16s.52-.24.72-.41c.2-.17.41-.45.64-.83ZM245.48,41.44c-.1-.4-.25-.72-.44-.96-.19-.24-.45-.43-.76-.58-.32-.15-.65-.22-1-.22-.57,0-1.07.18-1.48.55-.3.27-.53.67-.68,1.21h4.36Z"/><path class="cls-2" d="M248.08,36.7c.17,0,.32.06.44.18.12.12.18.27.18.44s-.06.31-.18.43c-.12.12-.27.18-.44.18s-.31-.06-.43-.18c-.12-.12-.18-.27-.18-.43s.06-.32.18-.44c.12-.12.27-.18.43-.18ZM247.71,39.11h.75v5.84h-.75v-5.84Z"/><path class="cls-2" d="M253.22,37.05h.79v4.77c0,.57.01.92.03,1.06.04.31.13.57.27.78.14.21.36.38.66.53.3.14.6.21.9.21.26,0,.51-.06.75-.17.24-.11.44-.27.6-.46.16-.2.28-.44.35-.71.05-.2.08-.61.08-1.24v-4.77h.79v4.77c0,.71-.07,1.28-.21,1.71-.14.44-.41.81-.83,1.14-.41.32-.91.48-1.5.48-.64,0-1.18-.15-1.64-.46-.45-.3-.76-.71-.91-1.21-.1-.31-.14-.86-.14-1.67v-4.77Z"/><path class="cls-2" d="M260.27,39.11h.75v1.05c.3-.4.63-.7,1-.9.37-.2.76-.3,1.19-.3s.82.11,1.16.33c.34.22.59.52.75.9s.24.96.24,1.76v3.01h-.75v-2.79c0-.67-.03-1.12-.08-1.35-.09-.39-.25-.68-.5-.87s-.57-.29-.97-.29c-.46,0-.86.15-1.22.45s-.6.67-.71,1.12c-.07.29-.11.82-.11,1.59v2.14h-.75v-5.84Z"/><path class="cls-2" d="M267.51,36.7c.17,0,.32.06.44.18.12.12.18.27.18.44s-.06.31-.18.43c-.12.12-.27.18-.44.18s-.31-.06-.43-.18c-.12-.12-.18-.27-.18-.43s.06-.32.18-.44c.12-.12.27-.18.43-.18ZM267.14,39.11h.75v5.84h-.75v-5.84Z"/><path class="cls-2" d="M268.9,39.11h.8l1.96,4.26,1.94-4.26h.81l-2.67,5.84h-.14l-2.69-5.84Z"/><path class="cls-2" d="M280.47,43.01l.63.33c-.21.41-.45.74-.72.99-.27.25-.58.44-.92.57-.34.13-.73.2-1.16.2-.95,0-1.7-.31-2.24-.94-.54-.62-.81-1.33-.81-2.12,0-.74.23-1.4.68-1.98.58-.74,1.35-1.11,2.32-1.11s1.79.38,2.39,1.13c.42.53.64,1.2.65,2h-5.26c.01.68.23,1.24.65,1.67.42.43.94.65,1.55.65.3,0,.59-.05.87-.16s.52-.24.72-.41c.2-.17.41-.45.64-.83ZM280.47,41.44c-.1-.4-.25-.72-.44-.96-.19-.24-.45-.43-.76-.58-.32-.15-.65-.22-1-.22-.57,0-1.07.18-1.48.55-.3.27-.53.67-.68,1.21h4.36Z"/><path class="cls-2" d="M282.69,39.11h.77v.85c.23-.34.47-.59.72-.75.25-.17.52-.25.79-.25.21,0,.43.07.67.2l-.39.63c-.16-.07-.29-.1-.4-.1-.25,0-.49.1-.73.31-.23.21-.41.53-.53.96-.09.33-.14,1.01-.14,2.02v1.98h-.77v-5.84Z"/><path class="cls-2" d="M289.5,39.75l-.48.5c-.4-.39-.79-.59-1.18-.59-.24,0-.45.08-.63.24s-.26.35-.26.56c0,.19.07.37.21.54.14.17.45.38.9.62.56.29.94.57,1.14.84.2.27.3.58.3.92,0,.48-.17.89-.51,1.22s-.76.5-1.26.5c-.34,0-.66-.07-.97-.22-.31-.15-.56-.35-.76-.61l.47-.54c.38.43.79.65,1.22.65.3,0,.56-.1.77-.29s.32-.42.32-.68c0-.21-.07-.41-.21-.58-.14-.16-.46-.37-.95-.62-.53-.27-.89-.54-1.08-.81-.19-.26-.29-.57-.29-.91,0-.44.15-.81.45-1.11.3-.29.69-.44,1.15-.44.54,0,1.08.26,1.62.79Z"/><path class="cls-2" d="M291.36,36.7c.17,0,.32.06.44.18s.18.27.18.44-.06.31-.18.43-.27.18-.44.18-.31-.06-.43-.18c-.12-.12-.18-.27-.18-.43s.06-.32.18-.44c.12-.12.27-.18.43-.18ZM290.99,39.11h.75v5.84h-.75v-5.84Z"/><path class="cls-2" d="M294.24,36.94h.75v2.17h1.19v.65h-1.19v5.19h-.75v-5.19h-1.03v-.65h1.03v-2.17Z"/><path class="cls-2" d="M296.95,39.11h.79l2.01,4.5,1.95-4.5h.8l-3.49,7.98h-.79l1.12-2.58-2.4-5.4Z"/></svg>